<svg width="42" height="41" viewBox="0 0 42 41" fill="none" xmlns="http://www.w3.org/2000/svg">
<ellipse cx="21.2874" cy="20.4268" rx="20.4291" ry="20.4268" fill="#FFD364"/>
<rect width="27.2388" height="27.2358" transform="translate(7.66699 6.80884)" fill="#FFD364"/>
<g clip-path="url(#clip0_374_35)">
<path d="M25.365 11.0659H15.88C13.2718 11.0659 11.1375 13.1994 11.1375 15.8084V25.2935C11.1375 27.9017 13.2718 30.036 15.88 30.036H25.365C27.9732 30.036 30.1076 27.9017 30.1076 25.2935V15.8084C30.1076 13.1994 27.9732 11.0659 25.365 11.0659ZM20.6225 24.5029C18.4395 24.5029 16.6703 22.733 16.6703 20.551C16.6703 18.368 18.4395 16.5988 20.6225 16.5988C22.8045 16.5988 24.5747 18.368 24.5747 20.551C24.5747 22.733 22.8045 24.5029 20.6225 24.5029ZM25.7603 16.5988C25.1049 16.5988 24.5747 16.0678 24.5747 15.4132C24.5747 14.7585 25.1049 14.2275 25.7603 14.2275C26.4157 14.2275 26.9459 14.7585 26.9459 15.4132C26.9459 16.0678 26.4157 16.5988 25.7603 16.5988Z" fill="url(#paint0_linear_374_35)"/>
</g>
<defs>
<linearGradient id="paint0_linear_374_35" x1="11.92" y1="14.8389" x2="33.4278" y2="21.373" gradientUnits="userSpaceOnUse">
<stop stop-color="#034078"/>
<stop offset="1" stop-color="#0676DE"/>
</linearGradient>
<clipPath id="clip0_374_35">
<rect width="18.9701" height="18.9701" fill="white" transform="translate(11.1375 11.0659)"/>
</clipPath>
</defs>
</svg>
