<svg width="168" height="135" viewBox="0 0 168 135" fill="none" xmlns="http://www.w3.org/2000/svg">
<g clip-path="url(#clip0_173_2)">
<path d="M168 0H0V135H168V0Z" fill="url(#paint0_linear_173_2)"/>
<path d="M4.39797 116.071V121.187C4.39797 121.831 4.07521 121.947 3.74994 122.086H8.46013L9.01991 120.959C8.59881 121.327 8.14494 121.889 7.1212 121.889H5.38136V116.071C5.38136 115.428 5.70663 115.311 6.03191 115.172H3.74994C4.07521 115.311 4.39797 115.428 4.39797 116.071ZM13.2384 122.175C15.1068 122.175 16.5138 120.734 16.5138 118.619C16.5138 116.585 15.1951 115.073 13.2384 115.073C11.3599 115.073 9.95539 116.504 9.95539 118.619C9.95539 120.663 11.2716 122.175 13.2384 122.175ZM10.9867 118.619C10.9867 116.623 11.9499 115.271 13.2384 115.271C14.5773 115.271 15.4825 116.694 15.4825 118.619C15.4825 120.615 14.5168 121.977 13.2384 121.977C11.8919 121.977 10.9867 120.557 10.9867 118.619ZM18.3924 116.071V121.187C18.3924 121.831 18.0671 121.947 17.7418 122.086H19.2371C18.9143 121.947 18.5891 121.831 18.5891 121.187V115.775L22.7193 122.086H23.1127V116.071C23.1127 115.428 23.4379 115.311 23.7607 115.172H22.2679C22.5907 115.311 22.916 115.428 22.916 116.071V120.574L19.3758 115.172H17.7418C18.0671 115.311 18.3924 115.428 18.3924 116.071ZM28.4709 122.175C29.0231 122.175 29.5728 121.998 30.0544 121.671C30.2334 121.919 30.4982 122.076 30.8234 122.086L31.5017 122.096C31.1765 121.947 30.8512 121.831 30.8512 121.187V118.728H28.8945C29.3862 118.936 29.8678 119.113 29.8678 120.07V120.762C29.7896 121.623 29.1794 121.977 28.4709 121.977C26.9277 121.977 26.0225 120.557 26.0225 118.619C26.0225 116.623 26.9882 115.271 28.3725 115.271C28.7482 115.271 29.1012 115.329 29.4164 115.448C29.8098 115.666 29.6913 115.952 29.5728 116.269L29.9863 115.724L30.0846 115.587C29.603 115.261 29.0231 115.073 28.3725 115.073C26.3982 115.073 24.9912 116.504 24.9912 118.619C24.9912 120.663 26.3074 122.175 28.4709 122.175ZM38.9755 122.175C39.79 122.175 40.617 121.78 41.197 121.119L41.0684 121L40.5489 120.557C40.7053 120.871 40.8515 121.147 40.3623 121.572C39.9387 121.841 39.4571 121.977 38.9755 121.977C37.4298 121.977 36.5246 120.557 36.5246 118.619C36.5246 116.623 37.4903 115.271 38.8772 115.271C39.2503 115.271 39.6034 115.329 39.9185 115.448C40.3119 115.666 40.1934 115.952 40.0749 116.269L40.4884 115.724L40.5868 115.587C40.1051 115.261 39.5252 115.073 38.8772 115.073C36.9003 115.073 35.4933 116.504 35.4933 118.619C35.4933 120.663 36.812 122.175 38.9755 122.175ZM45.4155 122.175C47.2839 122.175 48.6909 120.734 48.6909 118.619C48.6909 116.585 47.3721 115.073 45.4155 115.073C43.5369 115.073 42.1324 116.504 42.1324 118.619C42.1324 120.663 43.4487 122.175 45.4155 122.175ZM43.1637 118.619C43.1637 116.623 44.127 115.271 45.4155 115.271C46.7544 115.271 47.6571 116.694 47.6571 118.619C47.6571 120.615 46.6939 121.977 45.4155 121.977C44.069 121.977 43.1637 120.557 43.1637 118.619ZM52.8312 122.086L54.856 116.02C55.0628 115.42 55.4662 115.311 55.7915 115.172H54.2962C54.6215 115.311 54.8661 115.42 54.6593 116.02L53.0859 120.734L51.2275 115.982C51.0107 115.42 50.6375 115.172 50.0475 115.172H49.2305C49.5558 115.311 49.9794 115.41 50.2038 116.013L52.5841 122.086H52.8312ZM57.67 116.071V121.187C57.67 121.831 57.3447 121.947 57.0195 122.086H59.3014C58.9762 121.947 58.6534 121.831 58.6534 121.187V116.071C58.6534 115.428 58.9762 115.311 59.3014 115.172H57.0195C57.3447 115.311 57.67 115.428 57.67 116.071ZM61.18 116.071V121.187C61.18 121.831 60.8547 121.947 60.5294 122.086H63.3232V122.076C65.1917 122.076 66.5987 120.734 66.5987 118.619C66.5987 116.585 65.2799 115.172 63.3232 115.172H60.5294C60.8547 115.311 61.18 115.428 61.18 116.071ZM62.1634 121.889V115.369H63.3232C64.6597 115.369 65.5649 116.694 65.5649 118.619C65.5649 120.615 64.6017 121.879 63.3232 121.879V121.889H62.1634ZM71.2408 116.071V121.187C71.2408 121.831 70.9155 121.947 70.5903 122.086H72.0855C71.7602 121.947 71.4375 121.831 71.4375 121.187V116.129L73.8758 122.086H74.191L76.5511 115.4V121.187C76.5511 121.831 76.2258 121.947 75.9006 122.086H78.1825C77.8573 121.947 77.5345 121.831 77.5345 121.187V116.071C77.5345 115.428 77.8573 115.311 78.1825 115.172H76.4326L74.4053 120.911L72.0275 115.172H70.5903C70.9155 115.311 71.2408 115.428 71.2408 116.071ZM80.0611 116.071V121.187C80.0611 121.831 79.7358 121.947 79.4105 122.086H84.1232L84.683 120.959C84.2594 121.327 83.808 121.889 82.7843 121.889H81.0445V118.728H82.343C82.981 118.728 83.0995 119.055 83.2382 119.379V117.879C83.0995 118.204 82.981 118.53 82.343 118.53H81.0445V115.369H82.8826C83.8358 115.369 84.0148 115.853 84.2216 116.347V115.172H79.4105C79.7358 115.311 80.0611 115.428 80.0611 116.071ZM88.6645 115.172L85.911 123.074H86.5994L89.3529 115.172H88.6645ZM94.063 122.175C94.88 122.175 95.7071 121.78 96.287 121.119L96.1584 121L95.6365 120.557C95.7953 120.871 95.9416 121.147 95.4499 121.572C95.0288 121.841 94.5446 121.977 94.063 121.977C92.5199 121.977 91.6147 120.557 91.6147 118.619C91.6147 116.623 92.5779 115.271 93.9647 115.271C94.3404 115.271 94.6934 115.329 95.0086 115.448C95.402 115.666 95.2835 115.952 95.1649 116.269L95.5785 115.724L95.6768 115.587C95.1952 115.261 94.6153 115.073 93.9647 115.073C91.9904 115.073 90.5834 116.504 90.5834 118.619C90.5834 120.663 91.8996 122.175 94.063 122.175ZM98.1655 116.071V121.187C98.1655 121.831 97.8403 121.947 97.515 122.086H99.797C99.4717 121.947 99.1489 121.831 99.1489 121.187V118.728H100.448C101.085 118.728 101.204 119.055 101.34 119.379V117.879C101.204 118.204 101.085 118.53 100.448 118.53H99.1489V115.369H100.987C101.94 115.369 102.119 115.853 102.324 116.347V115.172H97.515C97.8403 115.311 98.1655 115.428 98.1655 116.071ZM106.013 115.073C104.568 115.073 103.71 115.823 103.71 116.831C103.71 118.984 107.349 118.857 107.349 120.526C107.349 121.286 106.779 121.977 105.775 121.977C105.206 121.977 104.636 121.78 104.164 121.415C103.839 121.109 104.015 120.843 104.202 120.557L103.554 121.119C104.134 121.78 104.961 122.175 105.775 122.175C107.281 122.175 108.383 121.504 108.383 120.151C108.383 118.047 104.744 118.224 104.744 116.514C104.744 115.833 105.206 115.271 106.013 115.271C106.386 115.271 106.739 115.329 107.054 115.448C107.447 115.666 107.329 115.952 107.213 116.269L107.624 115.724L107.722 115.587C107.24 115.261 106.661 115.073 106.013 115.073ZM113.025 116.071V121.187C113.025 121.831 112.7 121.947 112.374 122.086H114.656C114.331 121.947 114.008 121.831 114.008 121.187V119.794C114.243 119.706 114.5 119.617 114.745 119.528L115.965 121.347C116.318 121.869 116.141 121.947 115.816 122.086H118.196C117.871 121.947 117.41 121.869 117.057 121.337L115.609 119.171C116.545 118.728 117.301 118.125 117.301 117.069C117.301 115.982 116.25 115.172 114.775 115.172H112.374C112.7 115.311 113.025 115.428 113.025 116.071ZM114.008 119.488V115.369H114.775C115.65 115.369 116.27 115.942 116.27 117.069C116.27 118.599 115.188 119.055 114.008 119.488ZM120.075 116.071V121.187C120.075 121.831 119.75 121.947 119.424 122.086H124.137L124.697 120.959C124.273 121.327 123.822 121.889 122.798 121.889H121.058V118.728H122.357C122.995 118.728 123.113 119.055 123.252 119.379V117.879C123.113 118.204 122.995 118.53 122.357 118.53H121.058V115.369H122.897C123.85 115.369 124.029 115.853 124.235 116.347V115.172H119.424C119.75 115.311 120.075 115.428 120.075 116.071ZM129.014 122.175C129.831 122.175 130.655 121.78 131.235 121.119L131.109 121L130.587 120.557C130.744 120.871 130.892 121.147 130.401 121.572C129.977 121.841 129.495 121.977 129.014 121.977C127.471 121.977 126.565 120.557 126.565 118.619C126.565 116.623 127.529 115.271 128.915 115.271C129.289 115.271 129.644 115.329 129.957 115.448C130.35 115.666 130.234 115.952 130.116 116.269L130.529 115.724L130.628 115.587C130.143 115.261 129.563 115.073 128.915 115.073C126.939 115.073 125.532 116.504 125.532 118.619C125.532 120.663 126.85 122.175 129.014 122.175ZM135.454 122.175C137.322 122.175 138.729 120.734 138.729 118.619C138.729 116.585 137.413 115.073 135.454 115.073C133.578 115.073 132.171 116.504 132.171 118.619C132.171 120.663 133.487 122.175 135.454 122.175ZM133.202 118.619C133.202 116.623 134.168 115.271 135.454 115.271C136.793 115.271 137.698 116.694 137.698 118.619C137.698 120.615 136.732 121.977 135.454 121.977C134.107 121.977 133.202 120.557 133.202 118.619ZM142.869 122.086L144.897 116.02C145.101 115.42 145.504 115.311 145.83 115.172H144.334C144.66 115.311 144.904 115.42 144.698 116.02L143.124 120.734L141.266 115.982C141.051 115.42 140.676 115.172 140.086 115.172H139.271C139.594 115.311 140.018 115.41 140.245 116.013L142.625 122.086H142.869ZM147.708 116.071V121.187C147.708 121.831 147.383 121.947 147.058 122.086H151.77L152.33 120.959C151.907 121.327 151.455 121.889 150.432 121.889H148.692V118.728H149.99C150.628 118.728 150.747 119.055 150.885 119.379V117.879C150.747 118.204 150.628 118.53 149.99 118.53H148.692V115.369H150.53C151.483 115.369 151.662 115.853 151.869 116.347V115.172H147.058C147.383 115.311 147.708 115.428 147.708 116.071ZM154.209 116.071V121.187C154.209 121.831 153.883 121.947 153.558 122.086H155.84C155.517 121.947 155.192 121.831 155.192 121.187V119.794C155.427 119.706 155.684 119.617 155.928 119.528L157.149 121.347C157.502 121.869 157.325 121.947 157 122.086H159.38C159.055 121.947 158.594 121.869 158.241 121.337L156.793 119.171C157.729 118.728 158.485 118.125 158.485 117.069C158.485 115.982 157.434 115.172 155.959 115.172H153.558C153.883 115.311 154.209 115.428 154.209 116.071ZM155.192 119.488V115.369H155.959C156.834 115.369 157.454 115.942 157.454 117.069C157.454 118.599 156.372 119.055 155.192 119.488ZM160.482 115.972L162.144 119.29V121.187C162.144 121.831 161.819 121.947 161.496 122.086H163.775C163.453 121.947 163.127 121.831 163.127 121.187V119.371L164.829 115.972C165.114 115.4 165.556 115.311 165.881 115.172H164.338C164.66 115.311 164.867 115.4 164.582 115.972L163.069 119.014L161.534 115.922C161.279 115.4 160.906 115.172 160.326 115.172H159.431C159.754 115.311 160.197 115.4 160.482 115.972Z" fill="black"/>
<path d="M21.3765 98.2404V105.808L21.2303 106.013H25.4614V103.187L24.0998 103.916V104.646H22.7382V103.529L24.0998 102.799V101.432L22.7382 102.161V99.4029H24.0998V100.132L25.4614 99.4029V98.0352H21.2303L21.3765 98.2404ZM27.3903 98.2404V105.808L27.2416 106.013H28.8982L28.752 105.808V103.666L29.3193 106.013H30.6809L31.2483 103.666V105.808L31.0995 106.013H32.7561L32.6099 105.808V98.2404L32.7561 98.0352H31.2483L30.0001 103.197L28.752 98.0352H27.2416L27.3903 98.2404ZM34.5388 98.2404V105.808L34.3926 106.013H36.0492L35.9005 105.808V103.61L37.2949 102.868C38.1925 102.389 38.6237 101.627 38.6237 100.634V100.087C38.6237 98.8229 37.842 98.0352 36.5813 98.0352H34.3926L34.5388 98.2404ZM35.9005 102.07V99.4029H36.5813C37.1814 99.4029 37.2621 99.4815 37.2621 100.087V100.634C37.2621 101.204 37.1486 101.399 36.662 101.66L35.9005 102.07ZM40.5527 99.9728V104.076C40.5527 105.206 41.473 106.127 42.5951 106.127C43.7172 106.127 44.6375 105.206 44.6375 104.076V99.9728C44.6375 98.8457 43.7172 97.9213 42.5951 97.9213C41.473 97.9213 40.5527 98.8457 40.5527 99.9728ZM41.9143 104.076V99.9728C41.9143 99.5042 42.1311 99.289 42.5951 99.289C43.059 99.289 43.2759 99.5042 43.2759 99.9728V104.076C43.2759 104.544 43.059 104.76 42.5951 104.76C42.1311 104.76 41.9143 104.544 41.9143 104.076ZM46.1908 98.2404L47.6885 105.808L47.5877 106.013H49.2443L49.1409 105.808L49.7764 102.604L50.4118 105.808L50.3109 106.013H51.9675L51.8642 105.808L53.3619 98.2404L53.5561 98.0352H51.8995L52.0003 98.2404L51.138 102.584L50.2756 98.2404L50.379 98.0352H48.7224L48.914 98.2404L49.0955 99.175L48.4147 102.594L47.5524 98.2404L47.6558 98.0352H45.9991L46.1908 98.2404ZM55.1447 98.2404V105.808L54.9959 106.013H59.2295V103.187L57.8679 103.916V104.646H56.5063V103.529L57.8679 102.799V101.432L56.5063 102.161V99.4029H57.8679V100.132L59.2295 99.4029V98.0352H54.9959L55.1447 98.2404ZM61.1585 98.2404V105.808L61.0097 106.013H62.6663L62.5201 105.808V103.61L63.042 103.336L63.8136 105.808L63.7329 106.013H65.3896L65.1752 105.808L64.2095 102.698C64.9029 102.207 65.2433 101.513 65.2433 100.634V100.087C65.2433 98.8229 64.4591 98.0352 63.2009 98.0352H61.0097L61.1585 98.2404ZM62.5201 102.07V99.4029H63.2009C63.801 99.4029 63.8817 99.4815 63.8817 100.087V100.634C63.8817 101.204 63.7682 101.399 63.2791 101.66L62.5201 102.07ZM67.1723 98.2404V105.808L67.0235 106.013H71.2571V103.187L69.8955 103.916V104.646H68.5339V103.529L69.8955 102.799V101.432L68.5339 102.161V99.4029H69.8955V100.132L71.2571 99.4029V98.0352H67.0235L67.1723 98.2404ZM73.1861 98.2404V105.808L73.0373 106.013H75.2285C76.3506 106.013 77.2709 105.089 77.2709 103.962V100.087C77.2709 98.9572 76.3506 98.0352 75.2285 98.0352H73.0373L73.1861 98.2404ZM74.5477 104.646V99.4029H75.2285C75.6925 99.4029 75.9093 99.6208 75.9093 100.087V103.962C75.9093 104.43 75.6925 104.646 75.2285 104.646H74.5477ZM85.4406 99.9728V101.113L86.8023 100.429V99.9728C86.8023 98.8457 85.8819 97.9213 84.7598 97.9213C83.4991 97.9213 82.7174 98.709 82.7174 99.9728V100.178C82.7174 101.168 83.1486 101.921 84.0336 102.412L84.8279 102.845C85.3373 103.119 85.4406 103.301 85.4406 103.871V104.076C85.4406 104.681 85.36 104.76 84.7598 104.76C84.2934 104.76 84.079 104.544 84.079 104.076V103.05L82.7174 103.734V104.076C82.7174 105.206 83.6352 106.127 84.7598 106.127C86.0181 106.127 86.8023 105.342 86.8023 104.076V103.871C86.8023 102.878 86.3711 102.128 85.486 101.637L84.6918 101.204C84.1799 100.93 84.079 100.748 84.079 100.178V99.9728C84.079 99.37 84.1572 99.289 84.7598 99.289C85.2238 99.289 85.4406 99.5042 85.4406 99.9728ZM88.7312 98.2404V105.808L88.5825 106.013H92.8161V103.187L91.4545 103.916V104.646H90.0928V103.529L91.4545 102.799V101.432L90.0928 102.161V99.4029H91.4545V100.132L92.8161 99.4029V98.0352H88.5825L88.7312 98.2404ZM94.745 98.2404V105.808L94.5963 106.013H98.4895V104.499L98.2852 104.646H96.1067V98.2404L96.2529 98.0352H94.5963L94.745 98.2404ZM100.418 98.2404V105.808L100.27 106.013H101.926L101.78 105.808V103.529L103.142 102.799V101.432L101.78 102.161V99.4029H103.142V100.132L104.503 99.4029V98.0352H100.27L100.418 98.2404ZM106.432 101.454V102.822H108.929V101.454H106.432ZM110.858 98.2404V105.808L110.709 106.013H112.365L112.219 105.808V103.529L113.581 102.799V105.808L113.432 106.013H115.089L114.942 105.808V98.2404L115.089 98.0352H113.432L113.581 98.2404V101.432L112.219 102.161V98.2404L112.365 98.0352H110.709L110.858 98.2404ZM116.871 98.2404V105.808L116.723 106.013H120.956V103.187L119.595 103.916V104.646H118.233V103.529L119.595 102.799V101.432L118.233 102.161V99.4029H119.595V100.132L120.956 99.4029V98.0352H116.723L116.871 98.2404ZM127.184 105.808L125.687 98.2404L125.79 98.0352H124.133L124.234 98.2404L122.736 105.808L122.545 106.013H124.201L124.098 105.808L124.257 105L125.528 104.327L125.823 105.808L125.722 106.013H127.378L127.184 105.808ZM124.564 103.471L124.96 101.467L125.278 103.086L124.564 103.471ZM128.967 98.2404V105.808L128.818 106.013H132.711V104.499L132.507 104.646H130.329V98.2404L130.475 98.0352H128.818L128.967 98.2404ZM134.492 106.013H136.148L136.002 105.808V98.2404L136.148 98.0352H134.492L134.64 98.2404V105.808L134.492 106.013ZM137.931 98.2404V105.808L137.782 106.013H139.439L139.293 105.808V102.024L140.654 106.013H142.162L142.016 105.808V98.2404L142.162 98.0352H140.505L140.654 98.2404V102.024L139.293 98.0352H137.782L137.931 98.2404ZM143.945 99.9728V104.076C143.945 105.206 144.863 106.127 145.987 106.127C147.109 106.127 148.03 105.206 148.03 104.076V101.09L145.987 102.184V103.552L146.668 103.187V104.076C146.668 104.544 146.451 104.76 145.987 104.76C145.521 104.76 145.306 104.544 145.306 104.076V99.9728C145.306 99.5042 145.521 99.289 145.987 99.289C146.451 99.289 146.668 99.5042 146.668 99.9728V100.657L148.03 99.9728C148.03 98.8457 147.109 97.9213 145.987 97.9213C144.863 97.9213 143.945 98.8457 143.945 99.9728Z" fill="#FFBE58"/>
<path d="M94.1185 50.902C98.3527 55.1551 98.3527 62.0507 94.1185 66.3038H78.7851C74.5509 62.0507 74.5509 55.1551 78.7851 50.902C83.0193 46.6489 89.8843 46.6489 94.1185 50.902ZM86.7491 9.47827H86.1529V18.0028H86.7491V9.47827ZM86.4511 45.1562C86.5056 45.1562 86.5594 45.1581 86.6136 45.16L86.7491 45.1642V22.7045H86.1529V45.1642L86.2884 45.16C86.3425 45.1581 86.3967 45.1562 86.4511 45.1562ZM89.4934 45.5096L89.5254 45.5169L91.2745 37.251L90.6909 37.1266L88.9418 45.3923L88.9744 45.3986C89.1486 45.4317 89.3215 45.4692 89.4934 45.5096ZM80.764 46.4294C80.9236 46.3537 81.0844 46.2796 81.2475 46.2099L81.2779 46.1972L72.1865 25.6863L71.6413 25.9299L80.7339 46.4434L80.764 46.4294ZM83.4086 45.5096C83.5805 45.4695 83.7531 45.4317 83.9275 45.3986L83.9601 45.3923L82.211 37.1266L81.6274 37.251L83.3766 45.5169L83.4086 45.5096ZM78.3426 47.9048L78.3689 47.8848C78.5098 47.7773 78.6539 47.6739 78.7992 47.5722L78.8261 47.5531L73.8805 40.7156L73.3977 41.068L78.3426 47.9048ZM94.9979 19.6563L94.4143 19.5319L91.4151 33.706L91.9984 33.8303L94.9979 19.6563ZM81.4869 33.706L78.4876 19.5319L77.9041 19.6563L80.9036 33.8303L81.4869 33.706ZM94.0758 47.5531L94.1027 47.5722C94.2481 47.6739 94.3922 47.777 94.5331 47.8848L94.5593 47.9049L99.5043 41.068L99.0214 40.7156L94.0758 47.5531ZM91.6545 46.2099C91.8179 46.2796 91.9784 46.3537 92.138 46.4294L92.1681 46.4434L101.261 25.9299L100.715 25.6863L91.6241 46.1972L91.6545 46.2099ZM122.997 25.9554L122.597 25.5097L116.29 31.214L116.69 31.6597L122.997 25.9554ZM133.058 43.7088L132.873 43.1385L124.802 45.7729L124.986 46.3432L133.058 43.7088ZM96.2185 49.4121C96.3395 49.5415 96.4576 49.6739 96.5735 49.8081L96.595 49.8332L113.211 34.8055L112.812 34.3599L96.196 49.3879L96.2185 49.4121ZM108.492 46.1686L120.986 38.923L120.687 38.404L108.194 45.6498L108.492 46.1686ZM106.616 13.8471L106.071 13.6034L102.619 21.3913L103.164 21.6349L106.616 13.8471ZM70.2826 21.3913L66.8309 13.6034L66.2859 13.8471L69.7376 21.6349L70.2826 21.3913ZM101.551 38.2389L110.03 26.5154L109.547 26.163L101.068 37.8868L101.551 38.2389ZM52.3674 47.7961L73.6275 54.7347L73.637 54.7029C73.6887 54.5325 73.7444 54.3639 73.8023 54.1966L73.8131 54.1651L52.5517 47.2258L52.3674 47.7961ZM105.178 47.3979L97.8948 51.6223L97.9119 51.6506C98.0038 51.8023 98.0911 51.9569 98.1763 52.1124L98.1925 52.1416L105.477 47.9169L105.178 47.3979ZM120.35 47.2258L99.0889 54.1651L99.0996 54.1966C99.1576 54.3639 99.2136 54.5325 99.2649 54.7029L99.2744 54.7347L120.535 47.7961L120.35 47.2258ZM99.7329 56.9341C99.7545 57.11 99.7731 57.2868 99.788 57.4649L99.7909 57.498L108.16 56.6141L108.097 56.0178L99.7291 56.9013L99.7329 56.9341ZM67.4249 47.9169L74.7095 52.1416L74.7256 52.1124C74.8111 51.9569 74.8982 51.8023 74.9901 51.6506L75.0071 51.6223L67.7235 47.3979L67.4249 47.9169ZM111.559 55.6523L111.622 56.2487L125.97 54.7338L125.907 54.1374L111.559 55.6523ZM126.682 62.5503L126.619 63.1466L135.06 64.0381L135.123 63.4418L126.682 62.5503ZM99.788 59.7444C99.7731 59.9225 99.7545 60.0993 99.7329 60.2752L99.7291 60.308L121.965 62.6555L122.028 62.0592L99.7909 59.7113L99.788 59.7444ZM64.742 56.6141L73.1111 57.498L73.1139 57.4649C73.1288 57.2868 73.1475 57.11 73.1694 56.9344L73.1735 56.9013L64.8047 56.0178L64.742 56.6141ZM56.6119 31.214L50.3048 25.5097L49.9055 25.9554L56.2127 31.6597L56.6119 31.214ZM71.8341 37.8868L63.3545 26.163L62.8716 26.5154L71.3512 38.2389L71.8341 37.8868ZM73.1139 59.7447L73.1111 59.7116L50.8747 62.0592L50.9374 62.6555L73.1735 60.308L73.1694 60.2749C73.1475 60.0993 73.1288 59.9225 73.1139 59.7447ZM76.3285 49.8084C76.4447 49.6739 76.5625 49.5416 76.6834 49.4121L76.7059 49.3879L60.0899 34.3599L59.6906 34.8055L76.3069 49.8335L76.3285 49.8084ZM51.9162 38.923L64.4102 46.1686L64.7087 45.6498L52.2148 38.404L51.9162 38.923ZM48.1003 45.7729L40.0289 43.1385L39.8443 43.7088L47.9161 46.3432L48.1003 45.7729ZM61.3425 55.6523L46.995 54.1374L46.932 54.7338L61.2799 56.2487L61.3425 55.6523ZM37.7795 63.4418L37.8422 64.0381L46.2825 63.1466L46.2198 62.5503L37.7795 63.4418Z" fill="#F0B718"/>
<path d="M87.8667 66.0623C92.7496 66.0623 96.708 62.0863 96.708 57.1816C96.708 52.2769 92.7496 48.3009 87.8667 48.3009C82.9839 48.3009 79.0255 52.2769 79.0255 57.1816C79.0255 62.0863 82.9839 66.0623 87.8667 66.0623Z" fill="#F0BF32"/>
<path d="M89.457 62.2059C93.0978 62.2059 96.0493 59.2413 96.0493 55.5842C96.0493 51.9272 93.0978 48.9625 89.457 48.9625C85.8162 48.9625 82.8647 51.9272 82.8647 55.5842C82.8647 59.2413 85.8162 62.2059 89.457 62.2059Z" fill="#F5C94B"/>
<path d="M96.1963 60.3219C95.21 60.0226 94.4333 60.2112 93.1372 60.8226L91.9165 61.4271L86.9667 65.0533C86.9667 65.0533 83.9378 63.4761 81.8214 62.1654C79.7049 60.8547 78.5751 60.8387 77.9067 60.9027C77.2384 60.9666 75.6634 61.1878 73.9867 62.0695C72.5479 62.8261 59.2882 67.0599 51.4589 69.2231C51.4416 69.2231 72.8588 69.3756 93.2482 69.2231C93.5524 69.2208 93.8559 69.2253 94.1587 69.2231C109.633 69.1073 123.185 69.2231 123.185 69.2231C109.383 65.959 96.7056 60.4764 96.1963 60.3219Z" fill="#326E42"/>
<path d="M91.9165 61.4271L93.1053 60.5562C94.4015 59.9448 95.1782 59.7562 96.1645 60.0555C96.6737 60.21 110.996 65.6181 123.185 69.2231C123.185 69.2231 117.223 69.2838 113.849 68.4206C110.476 67.5575 107.198 65.7992 105.638 65.2238C104.079 64.6484 100.705 64.0729 98.7318 63.0819C96.7586 62.0909 95.0612 61.3556 94.0852 61.5474C93.1091 61.7392 90.0538 63.5934 90.0538 63.5934C90.0538 63.5934 90.7495 62.4537 91.9165 61.4271ZM86.9666 65.0533C86.9666 65.0533 84.1341 63.0393 82.0176 61.7286C79.9012 60.4178 78.7713 60.4019 78.103 60.4658C77.4346 60.5297 75.9653 60.9933 74.183 61.6326C72.4007 62.272 51.4589 69.2231 51.4589 69.2231C51.4589 69.2231 59.9672 67.3231 61.8131 66.6837C63.659 66.0443 68.5391 64.0623 70.2577 63.6787C71.9764 63.295 74.0769 62.6983 75.0635 62.3147C76.0501 61.931 77.8006 61.7072 78.469 62.3147C79.1373 62.922 82.7868 65.0959 84.0598 65.7992C85.3329 66.5025 90.3637 68.6685 93.2482 69.2299L89.5446 65.9804L86.9666 65.0533Z" fill="#3C7D4E"/>
<path d="M93.1053 60.5563C93.1053 60.5563 90.7654 63.3546 90.5872 64.0451C90.409 64.7356 94.1587 69.2232 94.1587 69.2232C94.1587 69.2232 90.2562 65.6307 89.6579 64.774C89.0595 63.9172 93.1053 60.5563 93.1053 60.5563Z" fill="#438A56"/>
<path d="M89.9265 64.4459C89.9808 63.9011 91.1474 62.2417 93.1054 60.5563C92.9072 60.6498 92.6977 60.7524 92.4727 60.8655C90.7752 61.7179 86.9667 65.0533 86.9667 65.0533C86.9667 65.0533 90.0044 67.4085 93.2482 69.23C93.5525 69.2277 93.8559 69.2254 94.1588 69.2231C92.6787 67.6822 89.8797 64.9167 89.9265 64.4459Z" fill="#2D543E"/>
<path d="M79.9937 84.4431C79.9988 84.4412 80.0038 84.4394 80.0087 84.4377C79.9881 84.42 79.9696 84.3997 79.9544 84.3768C79.903 84.3031 79.898 84.1986 79.9457 84.1221C79.9085 84.2015 79.9136 84.2986 79.9605 84.3729C79.9744 84.3959 79.9911 84.4174 80.0095 84.4374C80.0245 84.4322 80.0381 84.4282 80.0497 84.4253C80.0612 84.3983 80.0711 84.363 80.0686 84.3246C80.0676 84.308 80.0617 84.3054 80.0528 84.3015C80.0376 84.2948 80.0254 84.2862 80.0291 84.2476C80.0323 84.213 80.0185 84.2075 80.0038 84.2016C79.9933 84.1974 79.9802 84.1922 79.9796 84.175C79.9793 84.1659 79.9806 84.1579 79.9818 84.1508C79.9848 84.1326 79.9864 84.1226 79.9588 84.1086C79.9434 84.1008 79.9344 84.0906 79.9321 84.0781C79.9318 84.0766 79.9316 84.0752 79.9315 84.0737C79.8909 84.1207 79.8718 84.1717 79.8749 84.2257C79.8801 84.3183 79.9493 84.3999 79.9937 84.4431ZM80.0258 84.4274C80.0082 84.3882 80.008 84.3396 80.0278 84.3011C80.0205 84.3432 80.0209 84.3851 80.0258 84.4274ZM80.0126 84.4254C79.9563 84.3696 79.9482 84.2775 79.9773 84.2064C79.9614 84.2806 79.9677 84.362 80.0126 84.4254ZM80.4429 84.4751C80.4415 84.4754 80.44 84.4756 80.4385 84.4757C80.426 84.4764 80.4139 84.4701 80.4026 84.457C80.3825 84.4335 80.3732 84.4375 80.3563 84.4448C80.3498 84.4476 80.3424 84.4509 80.3335 84.4528C80.3167 84.4563 80.3085 84.4448 80.3019 84.4356C80.2927 84.4227 80.284 84.4106 80.2514 84.4221C80.215 84.435 80.2037 84.4252 80.1936 84.412C80.1914 84.4092 80.1895 84.4067 80.1871 84.4048C80.1831 84.4016 80.1777 84.4003 80.1675 84.4022C80.0994 84.4146 80.0509 84.4638 80.0363 84.4803C80.0643 84.5012 80.1912 84.5897 80.3099 84.5671C80.3627 84.557 80.4074 84.5261 80.4429 84.4751ZM80.3037 84.4625C80.242 84.5082 80.1511 84.5226 80.0837 84.4812C80.1558 84.5096 80.2359 84.4961 80.3037 84.4625ZM80.2 84.4363C80.1677 84.4649 80.1207 84.4765 80.0785 84.4688C80.1206 84.4633 80.1612 84.4536 80.2 84.4363ZM80.1447 84.5262C80.1166 84.5161 80.0905 84.5014 80.0669 84.4837C80.0989 84.502 80.1324 84.5165 80.1679 84.5251C80.2458 84.5442 80.3307 84.5235 80.3928 84.473C80.3304 84.538 80.2283 84.5584 80.1447 84.5262ZM79.8977 84.7712C79.901 84.6398 79.953 84.5508 79.996 84.4992C80.0201 84.4704 80.0437 84.45 80.0613 84.4367C79.9937 84.4525 79.8368 84.5066 79.74 84.6805C79.64 84.8602 79.5417 84.92 79.4263 84.9496L79.7438 85.1988C79.7664 85.1851 79.8897 85.0955 79.8977 84.7712ZM79.7455 85.1192C79.7487 85.1103 79.7491 85.1019 79.7471 85.0945C79.7409 85.0701 79.7117 85.062 79.6916 85.0768C79.6948 85.0679 79.6951 85.0596 79.6932 85.0521C79.687 85.0277 79.6577 85.0197 79.6376 85.0345C79.6448 85.0144 79.6739 85.0094 79.6899 85.0231C79.7024 85.0321 79.7069 85.0501 79.7016 85.0639C79.7137 85.0555 79.7322 85.0555 79.7439 85.0655C79.761 85.0777 79.7632 85.1073 79.7455 85.1192ZM79.8594 84.9345C79.8626 84.9257 79.8629 84.9173 79.861 84.9099C79.8548 84.8854 79.8255 84.8774 79.8055 84.8922C79.8087 84.8833 79.809 84.8749 79.807 84.8675C79.8009 84.8431 79.7716 84.835 79.7515 84.8499C79.7587 84.8298 79.7878 84.8248 79.8038 84.8385C79.8163 84.8474 79.8208 84.8655 79.8155 84.8793C79.8275 84.8708 79.8461 84.8709 79.8577 84.8808C79.8749 84.8931 79.8771 84.9227 79.8594 84.9345ZM79.7003 84.8672C79.7174 84.8795 79.7197 84.9091 79.702 84.921C79.7052 84.9121 79.7055 84.9037 79.7036 84.8963C79.6974 84.8718 79.6681 84.8638 79.648 84.8786C79.6552 84.8585 79.6843 84.8536 79.7003 84.8672ZM79.7697 84.7094C79.7769 84.6893 79.806 84.6844 79.822 84.698C79.8391 84.7103 79.8414 84.7399 79.8237 84.7517C79.8269 84.7429 79.8272 84.7345 79.8253 84.7271C79.8191 84.7026 79.7898 84.6946 79.7697 84.7094ZM79.8585 84.824C79.8756 84.8363 79.8779 84.8658 79.8602 84.8777C79.8634 84.8688 79.8637 84.8604 79.8618 84.853C79.8556 84.8286 79.8263 84.8205 79.8063 84.8353C79.8134 84.8153 79.8425 84.8103 79.8585 84.824ZM79.9181 84.5376C79.9352 84.5499 79.9375 84.5795 79.9198 84.5913C79.923 84.5824 79.9233 84.574 79.9214 84.5666C79.9152 84.5422 79.8859 84.5341 79.8658 84.5489C79.873 84.5289 79.9021 84.5239 79.9181 84.5376ZM79.7714 84.6514C79.7786 84.6313 79.8077 84.6263 79.8237 84.64C79.8358 84.6487 79.8404 84.666 79.8359 84.6796C79.8479 84.6719 79.8657 84.6722 79.877 84.6819C79.8941 84.6942 79.8964 84.7237 79.8787 84.7356C79.8819 84.7267 79.8822 84.7183 79.8803 84.7109C79.8746 84.6883 79.849 84.6797 79.8293 84.6904C79.8281 84.6916 79.8268 84.6927 79.8254 84.6937C79.8255 84.6933 79.8256 84.693 79.8257 84.6926C79.8254 84.6928 79.825 84.693 79.8247 84.6932C79.8253 84.6918 79.8259 84.6904 79.8267 84.6891C79.8285 84.682 79.8286 84.6752 79.8269 84.669C79.8208 84.6446 79.7915 84.6365 79.7714 84.6514ZM79.5935 84.8929C79.6007 84.8729 79.6297 84.8679 79.6457 84.8816C79.6582 84.8905 79.6627 84.9086 79.6575 84.9224C79.6695 84.9139 79.688 84.914 79.6997 84.9239C79.7168 84.9362 79.719 84.9658 79.7014 84.9776C79.7046 84.9687 79.7049 84.9604 79.7029 84.9529C79.6968 84.9285 79.6675 84.9205 79.6474 84.9353C79.6506 84.9264 79.6509 84.918 79.649 84.9106C79.6428 84.8862 79.6135 84.8781 79.5935 84.8929ZM79.7428 85.1785C79.746 85.1697 79.7463 85.1613 79.7444 85.1539C79.7382 85.1294 79.7089 85.1214 79.6888 85.1362C79.6888 85.1362 79.6888 85.1362 79.6888 85.1362C79.692 85.1273 79.6924 85.1189 79.6904 85.1115C79.6842 85.0871 79.655 85.079 79.6349 85.0939C79.6381 85.085 79.6384 85.0766 79.6365 85.0692C79.6303 85.0447 79.601 85.0367 79.5809 85.0515C79.5842 85.0426 79.5845 85.0343 79.5825 85.0268C79.5764 85.0024 79.5471 84.9943 79.527 85.0092C79.5342 84.9891 79.5632 84.9841 79.5793 84.9978C79.5917 85.0067 79.5963 85.0248 79.591 85.0386C79.603 85.0302 79.6216 85.0302 79.6332 85.0401C79.6457 85.0491 79.6502 85.0672 79.645 85.0809C79.657 85.0725 79.6755 85.0725 79.6872 85.0825C79.6996 85.0914 79.7042 85.1095 79.6989 85.1233C79.7109 85.1148 79.7295 85.1149 79.7411 85.1248C79.7582 85.1371 79.7605 85.1667 79.7428 85.1785Z" fill="black"/>
<path d="M103.613 83.9579C100.85 84.6364 97.9181 85.2541 95.0868 84.5214C93.5434 84.1778 92.1677 82.9314 91.699 81.4114C89.9234 81.7605 88.3161 82.8238 86.743 83.7811C85.7489 84.4577 84.4066 85.0905 83.1267 85.1577C85.16 85.6193 87.2999 85.366 89.34 85.0241C86.4334 86.327 82.6471 87.2113 79.8802 85.2056C78.923 84.4985 78.2604 83.4435 77.9611 82.2935C75.7334 82.9307 73.8469 84.3151 71.58 85.2384C69.2501 86.1222 66.3355 86.0777 64.3399 84.4547C66.7927 85.5503 69.6931 85.0303 71.9323 83.6621C74.2456 82.1926 76.6185 80.6246 79.4204 80.371C79.3434 80.9171 79.3701 81.4413 79.4857 81.9299C79.938 83.8416 81.9741 84.8884 83.8187 84.2341C84.2312 84.0877 84.6376 83.8883 85.0428 83.6542C83.2559 83.5788 81.5133 82.7689 81.2585 80.8255C82.2696 82.7893 84.2445 83.0585 86.1374 82.6076C86.6208 82.4925 87.076 82.281 87.4806 81.9915C89.1711 80.7822 90.9903 79.6047 93.2448 79.674C92.0456 84.9305 100.379 84.4374 103.613 83.9579ZM77.4535 79.0431C79.4496 78.0114 81.1981 77.2723 83.1643 76.6507C84.1594 79.4085 87.2604 80.4929 90.2907 79.9106C89.3971 79.9289 88.4771 79.8014 87.6348 79.5242C89.0513 79.6367 90.593 78.9859 91.7258 78.1965C93.2672 77.2586 94.8799 76.1601 96.6526 75.7926C97.1242 77.3081 98.4966 78.5501 100.037 78.893C102.868 79.6257 105.8 79.008 108.562 78.3295C105.329 78.809 96.9954 79.3021 98.1947 74.0456C94.3795 73.8945 91.6879 77.5276 88.8126 78.5972C86.6669 79.3954 84.3654 77.8782 84.3185 75.5804C84.3131 75.3165 84.3312 75.0401 84.3751 74.7513C78.5743 75.1532 75.6255 81.4358 69.2897 78.8263C71.6732 80.465 74.9239 80.2466 77.4535 79.0431ZM82.3969 77.916C80.6476 78.4733 79.0286 79.3578 77.4 80.1907C78.8616 79.8096 80.3323 79.4409 81.8187 79.2212C82.8649 80.5519 84.5355 81.4515 86.2216 81.1843C84.403 81.067 82.9108 79.6189 82.3969 77.916ZM95.9458 76.8507C95.0473 77.4613 93.2582 78.5787 92.3277 79.1752C93.25 78.9002 94.6093 78.235 95.6061 77.9195C97.222 80.1886 100.285 81.0093 102.906 80.742C100.237 80.6179 97.311 79.3794 95.9458 76.8507ZM94.9945 80.2114C97.0611 84.3665 104.212 82.7767 107.663 81.412C103.499 82.1855 98.5418 83.1547 94.9945 80.2114ZM69.1556 82.5127C72.0866 82.6534 75.3812 80.4533 75.3812 80.4533C68.7393 82.8672 66.7987 80.7972 66.7987 80.7972C66.7987 80.7972 67.1573 82.4168 69.1556 82.5127ZM106.138 80.7044C107.691 80.5162 108.146 79.7552 108.146 79.7552C107.367 80.2537 105.548 80.591 103.585 80.7284C103.585 80.7284 104.526 80.8997 106.138 80.7044Z" fill="black"/>
</g>
<defs>
<linearGradient id="paint0_linear_173_2" x1="0" y1="0" x2="0" y2="135" gradientUnits="userSpaceOnUse">
<stop stop-color="#17EAD9"/>
<stop offset="1" stop-color="#6078EA"/>
</linearGradient>
<clipPath id="clip0_173_2">
<rect width="168" height="135" fill="white"/>
</clipPath>
</defs>
</svg>
