<svg width="223" height="179" viewBox="0 0 223 179" fill="none" xmlns="http://www.w3.org/2000/svg">
<g clip-path="url(#clip0_173_258)">
<path d="M223 0H0V179H223V0Z" fill="url(#paint0_linear_173_258)"/>
<path d="M5.83778 153.902V160.685C5.83778 161.538 5.40936 161.693 4.9776 161.877H11.2298L11.9729 160.383C11.4139 160.87 10.8114 161.615 9.45255 161.615H7.14312V153.902C7.14312 153.049 7.57488 152.894 8.00664 152.709H4.9776C5.40936 152.894 5.83778 153.049 5.83778 153.902ZM17.5724 161.995C20.0525 161.995 21.9202 160.084 21.9202 157.28C21.9202 154.583 20.1697 152.578 17.5724 152.578C15.0789 152.578 13.2146 154.476 13.2146 157.28C13.2146 159.99 14.9617 161.995 17.5724 161.995ZM14.5835 157.28C14.5835 154.634 15.8621 152.84 17.5724 152.84C19.3497 152.84 20.5512 154.728 20.5512 157.28C20.5512 159.926 19.2693 161.733 17.5724 161.733C15.7851 161.733 14.5835 159.849 14.5835 157.28ZM24.4137 153.902V160.685C24.4137 161.538 23.9819 161.693 23.5502 161.877H25.5349C25.1065 161.693 24.6748 161.538 24.6748 160.685V153.509L30.1572 161.877H30.6793V153.902C30.6793 153.049 31.1111 152.894 31.5395 152.709H29.558C29.9865 152.894 30.4182 153.049 30.4182 153.902V159.873L25.719 152.709H23.5502C23.9819 152.894 24.4137 153.049 24.4137 153.902ZM37.7917 161.995C38.5247 161.995 39.2543 161.76 39.8936 161.327C40.1313 161.656 40.4827 161.864 40.9145 161.877L41.8148 161.891C41.383 161.693 40.9513 161.538 40.9513 160.685V157.424H38.354C39.0067 157.7 39.6459 157.935 39.6459 159.204V160.121C39.5422 161.263 38.7322 161.733 37.7917 161.733C35.7433 161.733 34.5417 159.849 34.5417 157.28C34.5417 154.634 35.8237 152.84 37.6612 152.84C38.1599 152.84 38.6284 152.918 39.0468 153.075C39.569 153.364 39.4116 153.744 39.2543 154.163L39.8032 153.441L39.9338 153.26C39.2945 152.827 38.5247 152.578 37.6612 152.578C35.0405 152.578 33.1728 154.476 33.1728 157.28C33.1728 159.99 34.92 161.995 37.7917 161.995ZM51.7353 161.995C52.8164 161.995 53.9142 161.471 54.6841 160.595L54.5134 160.437L53.8239 159.849C54.0314 160.265 54.2255 160.631 53.5762 161.196C53.0139 161.552 52.3746 161.733 51.7353 161.733C49.6836 161.733 48.482 159.849 48.482 157.28C48.482 154.634 49.764 152.84 51.6048 152.84C52.1002 152.84 52.5687 152.918 52.9871 153.075C53.5093 153.364 53.3519 153.744 53.1946 154.163L53.7435 153.441L53.8741 153.26C53.2348 152.827 52.465 152.578 51.6048 152.578C48.9808 152.578 47.1131 154.476 47.1131 157.28C47.1131 159.99 48.8636 161.995 51.7353 161.995ZM60.2836 161.995C62.7637 161.995 64.6314 160.084 64.6314 157.28C64.6314 154.583 62.8809 152.578 60.2836 152.578C57.7901 152.578 55.9258 154.476 55.9258 157.28C55.9258 159.99 57.6729 161.995 60.2836 161.995ZM57.2947 157.28C57.2947 154.634 58.5733 152.84 60.2836 152.84C62.0609 152.84 63.2591 154.728 63.2591 157.28C63.2591 159.926 61.9805 161.733 60.2836 161.733C58.4963 161.733 57.2947 159.849 57.2947 157.28ZM70.1272 161.877L72.8148 153.834C73.0893 153.038 73.6248 152.894 74.0566 152.709H72.0718C72.5035 152.894 72.8282 153.038 72.5537 153.834L70.4652 160.084L67.9985 153.784C67.7106 153.038 67.2153 152.709 66.4321 152.709H65.3476C65.7794 152.894 66.3417 153.025 66.6396 153.824L69.7992 161.877H70.1272ZM76.5501 153.902V160.685C76.5501 161.538 76.1183 161.693 75.6866 161.877H78.7156C78.2838 161.693 77.8554 161.538 77.8554 160.685V153.902C77.8554 153.049 78.2838 152.894 78.7156 152.709H75.6866C76.1183 152.894 76.5501 153.049 76.5501 153.902ZM81.2091 153.902V160.685C81.2091 161.538 80.7774 161.693 80.3456 161.877H84.0541V161.864C86.5342 161.864 88.4018 160.084 88.4018 157.28C88.4018 154.583 86.6514 152.709 84.0541 152.709H80.3456C80.7774 152.894 81.2091 153.049 81.2091 153.902ZM82.5145 161.615V152.971H84.0541C85.828 152.971 87.0296 154.728 87.0296 157.28C87.0296 159.926 85.751 161.602 84.0541 161.602V161.615H82.5145ZM94.5637 153.902V160.685C94.5637 161.538 94.1319 161.693 93.7002 161.877H95.6849C95.2532 161.693 94.8248 161.538 94.8248 160.685V153.979L98.0613 161.877H98.4797L101.613 153.012V160.685C101.613 161.538 101.181 161.693 100.749 161.877H103.778C103.346 161.693 102.918 161.538 102.918 160.685V153.902C102.918 153.049 103.346 152.894 103.778 152.709H101.455L98.7642 160.319L95.608 152.709H93.7002C94.1319 152.894 94.5637 153.049 94.5637 153.902ZM106.272 153.902V160.685C106.272 161.538 105.84 161.693 105.408 161.877H111.664L112.407 160.383C111.844 160.87 111.245 161.615 109.886 161.615H107.577V157.424H109.301C110.147 157.424 110.305 157.858 110.489 158.287V156.299C110.305 156.729 110.147 157.162 109.301 157.162H107.577V152.971H110.017C111.282 152.971 111.52 153.613 111.794 154.268V152.709H105.408C105.84 152.894 106.272 153.049 106.272 153.902ZM117.692 152.709L114.037 163.187H114.95L118.605 152.709H117.692ZM124.857 161.995C125.942 161.995 127.04 161.471 127.81 160.595L127.639 160.437L126.946 159.849C127.157 160.265 127.351 160.631 126.698 161.196C126.139 161.552 125.497 161.733 124.857 161.733C122.809 161.733 121.608 159.849 121.608 157.28C121.608 154.634 122.886 152.84 124.727 152.84C125.226 152.84 125.694 152.918 126.113 153.075C126.635 153.364 126.477 153.744 126.32 154.163L126.869 153.441L127 153.26C126.36 152.827 125.59 152.578 124.727 152.578C122.106 152.578 120.239 154.476 120.239 157.28C120.239 159.99 121.986 161.995 124.857 161.995ZM130.303 153.902V160.685C130.303 161.538 129.871 161.693 129.44 161.877H132.469C132.037 161.693 131.608 161.538 131.608 160.685V157.424H133.332C134.179 157.424 134.336 157.858 134.517 158.287V156.299C134.336 156.729 134.179 157.162 133.332 157.162H131.608V152.971H134.048C135.314 152.971 135.551 153.613 135.822 154.268V152.709H129.44C129.871 152.894 130.303 153.049 130.303 153.902ZM140.719 152.578C138.801 152.578 137.663 153.572 137.663 154.909C137.663 157.764 142.493 157.596 142.493 159.809C142.493 160.816 141.736 161.733 140.404 161.733C139.648 161.733 138.892 161.471 138.266 160.987C137.834 160.581 138.068 160.229 138.316 159.849L137.456 160.595C138.225 161.471 139.323 161.995 140.404 161.995C142.403 161.995 143.865 161.105 143.865 159.312C143.865 156.521 139.035 156.756 139.035 154.489C139.035 153.586 139.648 152.84 140.719 152.84C141.214 152.84 141.683 152.918 142.101 153.075C142.623 153.364 142.466 153.744 142.312 154.163L142.858 153.441L142.988 153.26C142.349 152.827 141.579 152.578 140.719 152.578ZM150.027 153.902V160.685C150.027 161.538 149.595 161.693 149.163 161.877H152.193C151.761 161.693 151.332 161.538 151.332 160.685V158.838C151.644 158.721 151.985 158.603 152.31 158.486L153.93 160.897C154.398 161.589 154.164 161.693 153.732 161.877H156.892C156.46 161.693 155.847 161.589 155.379 160.883L153.458 158.012C154.699 157.424 155.704 156.625 155.704 155.225C155.704 153.784 154.308 152.709 152.35 152.709H149.163C149.595 152.894 150.027 153.049 150.027 153.902ZM151.332 158.432V152.971H152.35C153.511 152.971 154.335 153.73 154.335 155.225C154.335 157.253 152.899 157.858 151.332 158.432ZM159.385 153.902V160.685C159.385 161.538 158.953 161.693 158.522 161.877H164.777L165.52 160.383C164.958 160.87 164.359 161.615 163 161.615H160.691V157.424H162.414C163.261 157.424 163.418 157.858 163.602 158.287V156.299C163.418 156.729 163.261 157.162 162.414 157.162H160.691V152.971H163.131C164.396 152.971 164.633 153.613 164.908 154.268V152.709H158.522C158.953 152.894 159.385 153.049 159.385 153.902ZM171.25 161.995C172.335 161.995 173.429 161.471 174.199 160.595L174.032 160.437L173.339 159.849C173.546 160.265 173.744 160.631 173.091 161.196C172.529 161.552 171.89 161.733 171.25 161.733C169.202 161.733 168 159.849 168 157.28C168 154.634 169.279 152.84 171.12 152.84C171.615 152.84 172.087 152.918 172.502 153.075C173.024 153.364 172.87 153.744 172.713 154.163L173.262 153.441L173.393 153.26C172.75 152.827 171.98 152.578 171.12 152.578C168.496 152.578 166.628 154.476 166.628 157.28C166.628 159.99 168.379 161.995 171.25 161.995ZM179.799 161.995C182.279 161.995 184.146 160.084 184.146 157.28C184.146 154.583 182.399 152.578 179.799 152.578C177.309 152.578 175.441 154.476 175.441 157.28C175.441 159.99 177.188 161.995 179.799 161.995ZM176.81 157.28C176.81 154.634 178.092 152.84 179.799 152.84C181.576 152.84 182.778 154.728 182.778 157.28C182.778 159.926 181.496 161.733 179.799 161.733C178.011 161.733 176.81 159.849 176.81 157.28ZM189.642 161.877L192.333 153.834C192.604 153.038 193.14 152.894 193.572 152.709H191.587C192.019 152.894 192.343 153.038 192.069 153.834L189.98 160.084L187.514 153.784C187.229 153.038 186.73 152.709 185.947 152.709H184.866C185.294 152.894 185.857 153.025 186.158 153.824L189.318 161.877H189.642ZM196.065 153.902V160.685C196.065 161.538 195.633 161.693 195.202 161.877H201.457L202.2 160.383C201.638 160.87 201.039 161.615 199.68 161.615H197.37V157.424H199.094C199.941 157.424 200.098 157.858 200.282 158.287V156.299C200.098 156.729 199.941 157.162 199.094 157.162H197.37V152.971H199.81C201.076 152.971 201.313 153.613 201.588 154.268V152.709H195.202C195.633 152.894 196.065 153.049 196.065 153.902ZM204.694 153.902V160.685C204.694 161.538 204.262 161.693 203.83 161.877H206.859C206.431 161.693 205.999 161.538 205.999 160.685V158.838C206.31 158.721 206.652 158.603 206.976 158.486L208.596 160.897C209.065 161.589 208.831 161.693 208.399 161.877H211.558C211.127 161.693 210.514 161.589 210.046 160.883L208.124 158.012C209.366 157.424 210.37 156.625 210.37 155.225C210.37 153.784 208.975 152.709 207.017 152.709H203.83C204.262 152.894 204.694 153.049 204.694 153.902ZM205.999 158.432V152.971H207.017C208.178 152.971 209.001 153.73 209.001 155.225C209.001 157.253 207.565 157.858 205.999 158.432ZM213.021 153.771L215.227 158.17V160.685C215.227 161.538 214.795 161.693 214.367 161.877H217.392C216.964 161.693 216.532 161.538 216.532 160.685V158.277L218.791 153.771C219.17 153.012 219.755 152.894 220.187 152.709H218.139C218.567 152.894 218.842 153.012 218.463 153.771L216.455 157.804L214.417 153.703C214.079 153.012 213.583 152.709 212.814 152.709H211.625C212.054 152.894 212.643 153.012 213.021 153.771Z" fill="black"/>
<path d="M28.3748 130.26V140.294L28.1807 140.566H33.7969V136.818L31.9896 137.785V138.753H30.1822V137.272L31.9896 136.304V134.491L30.1822 135.458V131.801H31.9896V132.768L33.7969 131.801V129.988H28.1807L28.3748 130.26ZM36.3574 130.26V140.294L36.1599 140.566H38.3589L38.1648 140.294V137.453L38.9179 140.566H40.7253L41.4783 137.453V140.294L41.2809 140.566H43.4798L43.2857 140.294V130.26L43.4798 129.988H41.4783L39.8216 136.832L38.1648 129.988H36.1599L36.3574 130.26ZM45.8462 130.26V140.294L45.6521 140.566H47.851L47.6536 140.294V137.379L49.5045 136.395C50.696 135.76 51.2683 134.75 51.2683 133.433V132.708C51.2683 131.032 50.2308 129.988 48.5573 129.988H45.6521L45.8462 130.26ZM47.6536 135.337V131.801H48.5573C49.3539 131.801 49.461 131.905 49.461 132.708V133.433C49.461 134.189 49.3103 134.447 48.6644 134.793L47.6536 135.337ZM53.8288 132.557V137.997C53.8288 139.495 55.0505 140.717 56.5399 140.717C58.0293 140.717 59.251 139.495 59.251 137.997V132.557C59.251 131.062 58.0293 129.836 56.5399 129.836C55.0505 129.836 53.8288 131.062 53.8288 132.557ZM55.6362 137.997V132.557C55.6362 131.935 55.924 131.65 56.5399 131.65C57.1557 131.65 57.4436 131.935 57.4436 132.557V137.997C57.4436 138.618 57.1557 138.904 56.5399 138.904C55.924 138.904 55.6362 138.618 55.6362 137.997ZM61.3127 130.26L63.3008 140.294L63.167 140.566H65.366L65.2287 140.294L66.0722 136.046L66.9156 140.294L66.7817 140.566H68.9807L68.8435 140.294L70.8316 130.26L71.0893 129.988H68.8904L69.0242 130.26L67.8796 136.019L66.7349 130.26L66.8721 129.988H64.6731L64.9275 130.26L65.1685 131.499L64.2648 136.032L63.1201 130.26L63.2573 129.988H61.0583L61.3127 130.26ZM73.198 130.26V140.294L73.0005 140.566H78.6201V136.818L76.8127 137.785V138.753H75.0053V137.272L76.8127 136.304V134.491L75.0053 135.458V131.801H76.8127V132.768L78.6201 131.801V129.988H73.0005L73.198 130.26ZM81.1806 130.26V140.294L80.9831 140.566H83.1821L82.988 140.294V137.379L83.6808 137.016L84.705 140.294L84.5979 140.566H86.7969L86.5124 140.294L85.2305 136.17C86.1509 135.519 86.6027 134.598 86.6027 133.433V132.708C86.6027 131.032 85.5618 129.988 83.8917 129.988H80.9831L81.1806 130.26ZM82.988 135.337V131.801H83.8917C84.6882 131.801 84.7953 131.905 84.7953 132.708V133.433C84.7953 134.189 84.6447 134.447 83.9954 134.793L82.988 135.337ZM89.1632 130.26V140.294L88.9657 140.566H94.5854V136.818L92.778 137.785V138.753H90.9706V137.272L92.778 136.304V134.491L90.9706 135.458V131.801H92.778V132.768L94.5854 131.801V129.988H88.9657L89.1632 130.26ZM97.1458 130.26V140.294L96.9483 140.566H99.8569C101.346 140.566 102.568 139.34 102.568 137.846V132.708C102.568 131.21 101.346 129.988 99.8569 129.988H96.9483L97.1458 130.26ZM98.9532 138.753V131.801H99.8569C100.473 131.801 100.761 132.09 100.761 132.708V137.846C100.761 138.467 100.473 138.753 99.8569 138.753H98.9532ZM113.412 132.557V134.068L115.22 133.161V132.557C115.22 131.062 113.998 129.836 112.509 129.836C110.835 129.836 109.798 130.881 109.798 132.557V132.829C109.798 134.142 110.37 135.139 111.545 135.791L112.599 136.365C113.275 136.728 113.412 136.969 113.412 137.725V137.997C113.412 138.8 113.305 138.904 112.509 138.904C111.889 138.904 111.605 138.618 111.605 137.997V136.637L109.798 137.544V137.997C109.798 139.495 111.016 140.717 112.509 140.717C114.179 140.717 115.22 139.676 115.22 137.997V137.725C115.22 136.409 114.647 135.415 113.473 134.763L112.418 134.189C111.739 133.826 111.605 133.584 111.605 132.829V132.557C111.605 131.757 111.709 131.65 112.509 131.65C113.124 131.65 113.412 131.935 113.412 132.557ZM117.78 130.26V140.294L117.583 140.566H123.202V136.818L121.395 137.785V138.753H119.588V137.272L121.395 136.304V134.491L119.588 135.458V131.801H121.395V132.768L123.202 131.801V129.988H117.583L117.78 130.26ZM125.763 130.26V140.294L125.565 140.566H130.733V138.558L130.462 138.753H127.57V130.26L127.764 129.988H125.565L125.763 130.26ZM133.294 130.26V140.294L133.096 140.566H135.295L135.101 140.294V137.272L136.908 136.304V134.491L135.101 135.458V131.801H136.908V132.768L138.716 131.801V129.988H133.096L133.294 130.26ZM141.276 134.521V136.335H144.59V134.521H141.276ZM147.15 130.26V140.294L146.953 140.566H149.152L148.958 140.294V137.272L150.765 136.304V140.294L150.567 140.566H152.766L152.572 140.294V130.26L152.766 129.988H150.567L150.765 130.26V134.491L148.958 135.458V130.26L149.152 129.988H146.953L147.15 130.26ZM155.133 130.26V140.294L154.935 140.566H160.555V136.818L158.748 137.785V138.753H156.94V137.272L158.748 136.304V134.491L156.94 135.458V131.801H158.748V132.768L160.555 131.801V129.988H154.935L155.133 130.26ZM168.822 140.294L166.834 130.26L166.971 129.988H164.772L164.906 130.26L162.918 140.294L162.664 140.566H164.863L164.725 140.294L164.936 139.223L166.623 138.329L167.015 140.294L166.881 140.566H169.08L168.822 140.294ZM165.344 137.194L165.87 134.538L166.292 136.684L165.344 137.194ZM171.188 130.26V140.294L170.991 140.566H176.159V138.558L175.888 138.753H172.996V130.26L173.19 129.988H170.991L171.188 130.26ZM178.522 140.566H180.721L180.527 140.294V130.26L180.721 129.988H178.522L178.719 130.26V140.294L178.522 140.566ZM183.087 130.26V140.294L182.89 140.566H185.089L184.894 140.294V135.277L186.702 140.566H188.703L188.509 140.294V130.26L188.703 129.988H186.504L186.702 130.26V135.277L184.894 129.988H182.89L183.087 130.26ZM191.07 132.557V137.997C191.07 139.495 192.288 140.717 193.781 140.717C195.27 140.717 196.492 139.495 196.492 137.997V134.038L193.781 135.488V137.302L194.684 136.818V137.997C194.684 138.618 194.397 138.904 193.781 138.904C193.161 138.904 192.877 138.618 192.877 137.997V132.557C192.877 131.935 193.161 131.65 193.781 131.65C194.397 131.65 194.684 131.935 194.684 132.557V133.463L196.492 132.557C196.492 131.062 195.27 129.836 193.781 129.836C192.288 129.836 191.07 131.062 191.07 132.557Z" fill="#FFBE58"/>
<path d="M124.931 67.4924C130.551 73.1317 130.551 82.2748 124.931 87.9141H104.578C98.9575 82.2748 98.9575 73.1317 104.578 67.4924C110.198 61.8531 119.311 61.8531 124.931 67.4924ZM115.149 12.5676H114.358V23.8705H115.149V12.5676ZM114.754 59.8739C114.826 59.8739 114.897 59.8765 114.969 59.879L115.149 59.8845V30.1047H114.358V59.8845L114.538 59.879C114.609 59.8765 114.681 59.8739 114.754 59.8739ZM118.792 60.3425L118.834 60.3522L121.156 49.3922L120.381 49.2273L118.06 60.1869L118.103 60.1953C118.334 60.2392 118.564 60.2889 118.792 60.3425ZM107.205 61.5621C107.416 61.4617 107.63 61.3635 107.846 61.2711L107.887 61.2542L95.819 34.0582L95.0953 34.3812L107.165 61.5807L107.205 61.5621ZM110.715 60.3425C110.943 60.2893 111.172 60.2392 111.404 60.1953L111.447 60.1869L109.125 49.2273L108.351 49.3922L110.672 60.3522L110.715 60.3425ZM103.991 63.5184L104.025 63.4919C104.212 63.3493 104.404 63.2122 104.597 63.0773L104.632 63.052L98.0676 53.986L97.4267 54.4532L103.991 63.5184ZM126.098 26.0629L125.324 25.8981L121.343 44.6918L122.117 44.8567L126.098 26.0629ZM108.164 44.6918L104.183 25.8981L103.408 26.0629L107.39 44.8567L108.164 44.6918ZM124.874 63.052L124.91 63.0773C125.103 63.2122 125.294 63.3489 125.481 63.4919L125.516 63.5184L132.08 54.4532L131.439 53.986L124.874 63.052ZM121.66 61.2711C121.877 61.3635 122.09 61.4617 122.302 61.5621L122.342 61.5807L134.412 34.3812L133.688 34.0582L121.62 61.2542L121.66 61.2711ZM163.264 34.415L162.733 33.8242L154.361 41.3877L154.892 41.9785L163.264 34.415ZM176.618 57.9547L176.374 57.1986L165.659 60.6917L165.904 61.4478L176.618 57.9547ZM127.719 65.5169C127.879 65.6886 128.036 65.864 128.19 66.042L128.218 66.0753L150.275 46.1496L149.745 45.5588L127.689 65.4849L127.719 65.5169ZM144.01 61.2163L160.594 51.6092L160.198 50.921L143.614 60.5285L144.01 61.2163ZM141.521 18.3603L140.797 18.0373L136.215 28.3634L136.938 28.6864L141.521 18.3603ZM93.2917 28.3634L88.71 18.0373L87.9867 18.3603L92.5684 28.6864L93.2917 28.3634ZM134.797 50.7021L146.052 35.1577L145.411 34.6904L134.156 50.2352L134.797 50.7021ZM69.5115 63.3742L97.7318 72.5743L97.7444 72.5322C97.8129 72.3061 97.8869 72.0826 97.9638 71.8608L97.9781 71.819L69.7561 62.6181L69.5115 63.3742ZM139.612 62.8462L129.944 68.4474L129.966 68.485C130.088 68.6861 130.204 68.8911 130.317 69.0973L130.339 69.1361L140.008 63.5344L139.612 62.8462ZM159.751 62.6181L131.529 71.819L131.543 71.8608C131.62 72.0826 131.694 72.3061 131.762 72.5322L131.775 72.5743L159.995 63.3742L159.751 62.6181ZM132.384 75.4905C132.412 75.7237 132.437 75.9582 132.457 76.1943L132.46 76.2382L143.569 75.0663L143.486 74.2755L132.379 75.4471L132.384 75.4905ZM89.4985 63.5344L99.168 69.1361L99.1894 69.0973C99.3029 68.8911 99.4185 68.6861 99.5404 68.485L99.5631 68.4474L89.8948 62.8462L89.4985 63.5344ZM148.082 73.791L148.165 74.5817L167.21 72.5731L167.127 71.7824L148.082 73.791ZM168.155 82.9371L168.072 83.7279L179.276 84.9099L179.359 84.1192L168.155 82.9371ZM132.457 79.2168C132.437 79.4529 132.412 79.6874 132.384 79.9206L132.379 79.9641L161.894 83.0767L161.977 82.286L132.46 79.1729L132.457 79.2168ZM85.9373 75.0663L97.0463 76.2382L97.0501 76.1943C97.0698 75.9582 97.0946 75.7237 97.1236 75.491L97.1291 75.4471L86.0205 74.2756L85.9373 75.0663ZM75.1456 41.3876L66.7736 33.8242L66.2436 34.415L74.6156 41.9785L75.1456 41.3876ZM95.3512 50.2352L84.0955 34.6904L83.4546 35.1577L94.7103 50.7021L95.3512 50.2352ZM97.0501 79.2172L97.0463 79.1733L67.5302 82.286L67.6134 83.0767L97.1291 79.9641L97.1236 79.9202C97.0946 79.6874 97.0698 79.4529 97.0501 79.2172ZM101.317 66.0424C101.471 65.864 101.628 65.6886 101.788 65.5169L101.818 65.4849L79.7622 45.5588L79.2322 46.1496L101.288 66.0757L101.317 66.0424ZM68.9126 51.6092L85.4968 61.2163L85.8931 60.5285L69.3089 50.921L68.9126 51.6092ZM63.8475 60.6917L53.1336 57.1986L52.8885 57.9547L63.6029 61.4478L63.8475 60.6917ZM81.4249 73.791L62.3802 71.7824L62.2966 72.5731L81.3417 74.5817L81.4249 73.791ZM50.1478 84.1192L50.231 84.9099L61.4345 83.7279L61.3513 82.9371L50.1478 84.1192Z" fill="#F0B718"/>
<path d="M116.633 87.5937C123.114 87.5937 128.368 82.3218 128.368 75.8186C128.368 69.3154 123.114 64.0435 116.633 64.0435C110.151 64.0435 104.897 69.3154 104.897 75.8186C104.897 82.3218 110.151 87.5937 116.633 87.5937Z" fill="#F0BF32"/>
<path d="M118.744 82.4807C123.576 82.4807 127.494 78.5498 127.494 73.7008C127.494 68.8518 123.576 64.9209 118.744 64.9209C113.911 64.9209 109.993 68.8518 109.993 73.7008C109.993 78.5498 113.911 82.4807 118.744 82.4807Z" fill="#F5C94B"/>
<path d="M127.689 79.9826C126.38 79.5857 125.349 79.8357 123.629 80.6464L122.008 81.4479L115.438 86.256C115.438 86.256 111.418 84.1648 108.608 82.4269C105.799 80.689 104.299 80.6678 103.412 80.7526C102.525 80.8373 100.434 81.1307 98.2086 82.2997C96.2987 83.303 78.698 88.9166 68.3056 91.7848C68.2826 91.7848 96.7114 91.9871 123.776 91.7848C124.18 91.7818 124.583 91.7878 124.985 91.7848C145.525 91.6313 163.514 91.7848 163.514 91.7848C145.193 87.457 128.365 80.1874 127.689 79.9826Z" fill="#326E42"/>
<path d="M122.008 81.4479L123.586 80.2931C125.307 79.4824 126.338 79.2324 127.647 79.6293C128.323 79.8341 147.334 87.0048 163.514 91.7848C163.514 91.7848 155.6 91.8652 151.122 90.7208C146.644 89.5763 142.292 87.245 140.222 86.482C138.152 85.719 133.674 84.956 131.055 83.642C128.436 82.3279 126.182 81.353 124.887 81.6074C123.591 81.8617 119.536 84.3202 119.536 84.3202C119.536 84.3202 120.459 82.8091 122.008 81.4479ZM115.438 86.2559C115.438 86.2559 111.678 83.5855 108.869 81.8476C106.059 80.1096 104.56 80.0884 103.672 80.1732C102.785 80.258 100.835 80.8726 98.4691 81.7204C96.1034 82.5681 68.3055 91.7848 68.3055 91.7848C68.3055 91.7848 79.5993 89.2654 82.0496 88.4177C84.4998 87.5699 90.9775 84.9419 93.2588 84.4332C95.5401 83.9246 98.3283 83.1333 99.6379 82.6247C100.948 82.116 103.271 81.8193 104.158 82.6247C105.045 83.43 109.89 86.3124 111.579 87.245C113.269 88.1775 119.947 91.0494 123.776 91.7938L118.86 87.4851L115.438 86.2559Z" fill="#3C7D4E"/>
<path d="M123.586 80.2932C123.586 80.2932 120.48 84.0035 120.244 84.9191C120.007 85.8347 124.985 91.7849 124.985 91.7849C124.985 91.7849 119.804 87.0216 119.01 85.8856C118.216 84.7496 123.586 80.2932 123.586 80.2932Z" fill="#438A56"/>
<path d="M119.367 85.4506C119.439 84.7282 120.987 82.528 123.586 80.2932C123.323 80.4172 123.045 80.5533 122.746 80.7032C120.493 81.8335 115.438 86.256 115.438 86.256C115.438 86.256 119.47 89.3787 123.776 91.7939C124.18 91.7908 124.583 91.7879 124.985 91.7848C123.02 89.7417 119.305 86.0748 119.367 85.4506Z" fill="#2D543E"/>
<path d="M106.182 111.965C106.189 111.963 106.195 111.96 106.202 111.958C106.175 111.935 106.15 111.908 106.13 111.877C106.062 111.78 106.055 111.641 106.118 111.54C106.069 111.645 106.076 111.774 106.138 111.872C106.156 111.903 106.179 111.931 106.203 111.958C106.223 111.951 106.241 111.945 106.256 111.942C106.272 111.906 106.285 111.859 106.282 111.808C106.28 111.786 106.272 111.783 106.261 111.777C106.24 111.769 106.224 111.757 106.229 111.706C106.233 111.66 106.215 111.653 106.196 111.645C106.182 111.639 106.164 111.632 106.163 111.61C106.163 111.598 106.165 111.587 106.166 111.578C106.17 111.553 106.172 111.54 106.136 111.522C106.115 111.511 106.103 111.498 106.1 111.481C106.1 111.479 106.1 111.477 106.1 111.475C106.046 111.538 106.02 111.605 106.024 111.677C106.031 111.8 106.123 111.908 106.182 111.965ZM106.225 111.944C106.201 111.892 106.201 111.828 106.227 111.777C106.218 111.833 106.218 111.888 106.225 111.944ZM106.207 111.942C106.132 111.868 106.122 111.746 106.16 111.651C106.139 111.75 106.148 111.858 106.207 111.942ZM106.778 112.008C106.776 112.008 106.774 112.008 106.773 112.008C106.756 112.009 106.74 112.001 106.725 111.984C106.698 111.952 106.686 111.958 106.663 111.967C106.655 111.971 106.645 111.975 106.633 111.978C106.611 111.983 106.6 111.967 106.591 111.955C106.579 111.938 106.567 111.922 106.524 111.937C106.476 111.954 106.461 111.941 106.447 111.924C106.444 111.92 106.442 111.917 106.439 111.914C106.433 111.91 106.426 111.908 106.413 111.911C106.322 111.927 106.258 111.993 106.239 112.014C106.276 112.042 106.444 112.16 106.602 112.13C106.672 112.116 106.731 112.075 106.778 112.008ZM106.594 111.991C106.512 112.051 106.391 112.071 106.301 112.016C106.397 112.053 106.503 112.035 106.594 111.991ZM106.456 111.956C106.413 111.994 106.351 112.009 106.295 111.999C106.35 111.992 106.404 111.979 106.456 111.956ZM106.382 112.075C106.345 112.062 106.311 112.042 106.279 112.019C106.322 112.043 106.366 112.062 106.413 112.074C106.517 112.099 106.629 112.072 106.712 112.005C106.629 112.091 106.493 112.118 106.382 112.075ZM106.055 112.4C106.059 112.226 106.128 112.108 106.185 112.04C106.217 112.001 106.248 111.974 106.272 111.957C106.182 111.978 105.974 112.049 105.845 112.28C105.712 112.518 105.582 112.598 105.429 112.637L105.85 112.967C105.88 112.949 106.044 112.83 106.055 112.4ZM105.853 112.862C105.857 112.85 105.857 112.839 105.855 112.829C105.846 112.797 105.808 112.786 105.781 112.805C105.785 112.794 105.786 112.783 105.783 112.773C105.775 112.74 105.736 112.73 105.709 112.749C105.719 112.723 105.757 112.716 105.779 112.734C105.795 112.746 105.801 112.77 105.794 112.788C105.81 112.777 105.835 112.777 105.85 112.79C105.873 112.807 105.876 112.846 105.853 112.862ZM106.004 112.617C106.008 112.605 106.008 112.594 106.006 112.584C105.998 112.552 105.959 112.541 105.932 112.561C105.936 112.549 105.937 112.538 105.934 112.528C105.926 112.496 105.887 112.485 105.861 112.505C105.87 112.478 105.909 112.471 105.93 112.489C105.946 112.501 105.952 112.525 105.946 112.544C105.961 112.532 105.986 112.532 106.002 112.546C106.024 112.562 106.027 112.601 106.004 112.617ZM105.793 112.528C105.815 112.544 105.818 112.583 105.795 112.599C105.799 112.587 105.799 112.576 105.797 112.566C105.789 112.534 105.75 112.523 105.723 112.543C105.733 112.516 105.771 112.509 105.793 112.528ZM105.885 112.318C105.894 112.292 105.933 112.285 105.954 112.303C105.977 112.32 105.98 112.359 105.956 112.374C105.961 112.363 105.961 112.352 105.958 112.342C105.95 112.309 105.911 112.299 105.885 112.318ZM106.003 112.47C106.025 112.486 106.028 112.526 106.005 112.541C106.009 112.53 106.009 112.519 106.007 112.509C105.999 112.476 105.96 112.466 105.933 112.485C105.943 112.459 105.981 112.452 106.003 112.47ZM106.082 112.09C106.104 112.107 106.107 112.146 106.084 112.162C106.088 112.15 106.089 112.139 106.086 112.129C106.078 112.097 106.039 112.086 106.012 112.106C106.022 112.079 106.06 112.072 106.082 112.09ZM105.887 112.241C105.897 112.215 105.935 112.208 105.956 112.226C105.972 112.238 105.979 112.261 105.973 112.279C105.988 112.269 106.012 112.269 106.027 112.282C106.05 112.298 106.053 112.337 106.029 112.353C106.034 112.341 106.034 112.33 106.031 112.32C106.024 112.29 105.99 112.279 105.964 112.293C105.962 112.295 105.961 112.296 105.959 112.297C105.959 112.297 105.959 112.297 105.959 112.296C105.959 112.296 105.958 112.297 105.958 112.297C105.958 112.295 105.959 112.293 105.96 112.291C105.963 112.282 105.963 112.273 105.961 112.265C105.952 112.232 105.914 112.222 105.887 112.241ZM105.651 112.562C105.66 112.535 105.699 112.528 105.72 112.547C105.737 112.558 105.743 112.582 105.736 112.601C105.752 112.59 105.776 112.59 105.792 112.603C105.814 112.619 105.817 112.658 105.794 112.674C105.798 112.662 105.799 112.651 105.796 112.641C105.788 112.609 105.749 112.598 105.722 112.618C105.727 112.606 105.727 112.595 105.724 112.585C105.716 112.553 105.677 112.542 105.651 112.562ZM105.849 112.94C105.853 112.929 105.854 112.917 105.851 112.908C105.843 112.875 105.804 112.865 105.777 112.884C105.777 112.884 105.777 112.884 105.777 112.884C105.782 112.872 105.782 112.861 105.779 112.852C105.771 112.819 105.732 112.808 105.706 112.828C105.71 112.816 105.71 112.805 105.708 112.795C105.7 112.763 105.661 112.752 105.634 112.772C105.638 112.76 105.639 112.749 105.636 112.739C105.628 112.707 105.589 112.696 105.563 112.716C105.572 112.689 105.611 112.683 105.632 112.701C105.648 112.713 105.654 112.737 105.647 112.755C105.663 112.744 105.688 112.744 105.704 112.757C105.72 112.769 105.726 112.793 105.719 112.811C105.735 112.8 105.76 112.8 105.775 112.813C105.792 112.825 105.798 112.849 105.791 112.867C105.807 112.856 105.831 112.856 105.847 112.869C105.869 112.885 105.872 112.925 105.849 112.94Z" fill="black"/>
<path d="M137.533 111.322C133.867 112.222 129.975 113.041 126.216 112.069C124.168 111.613 122.342 109.961 121.719 107.945C119.363 108.408 117.229 109.818 115.141 111.088C113.822 111.985 112.04 112.824 110.341 112.913C113.04 113.525 115.88 113.189 118.588 112.736C114.73 114.463 109.704 115.636 106.031 112.976C104.761 112.039 103.881 110.64 103.484 109.115C100.527 109.96 98.023 111.796 95.0139 113.02C91.9212 114.192 88.0524 114.133 85.4036 111.981C88.6594 113.433 92.5093 112.744 95.4816 110.93C98.5522 108.981 101.702 106.902 105.421 106.566C105.319 107.29 105.354 107.985 105.508 108.633C106.108 111.168 108.811 112.556 111.259 111.688C111.807 111.494 112.346 111.23 112.884 110.919C110.512 110.819 108.199 109.745 107.861 107.169C109.203 109.772 111.825 110.129 114.337 109.532C114.979 109.379 115.583 109.098 116.12 108.715C118.364 107.111 120.779 105.55 123.771 105.642C122.18 112.612 133.241 111.958 137.533 111.322ZM102.81 104.805C105.46 103.437 107.781 102.457 110.391 101.633C111.712 105.29 115.828 106.728 119.85 105.955C118.664 105.98 117.443 105.811 116.325 105.443C118.205 105.592 120.251 104.729 121.755 103.683C123.801 102.439 125.942 100.983 128.295 100.495C128.921 102.505 130.743 104.152 132.787 104.606C136.545 105.578 140.437 104.759 144.104 103.859C139.811 104.495 128.75 105.149 130.342 98.1789C125.278 97.9786 121.705 102.796 117.888 104.214C115.04 105.272 111.985 103.261 111.923 100.214C111.916 99.864 111.94 99.4976 111.998 99.1146C104.298 99.6475 100.384 107.978 91.9739 104.518C95.1376 106.691 99.4526 106.401 102.81 104.805ZM109.372 103.311C107.05 104.05 104.901 105.222 102.739 106.327C104.679 105.822 106.632 105.333 108.605 105.041C109.993 106.806 112.211 107.999 114.449 107.644C112.035 107.489 110.054 105.569 109.372 103.311ZM127.357 101.898C126.164 102.708 123.789 104.189 122.554 104.98C123.778 104.616 125.583 103.734 126.906 103.315C129.051 106.324 133.117 107.412 136.595 107.058C133.053 106.893 129.169 105.251 127.357 101.898ZM126.094 106.354C128.837 111.864 138.328 109.756 142.91 107.946C137.382 108.972 130.803 110.257 126.094 106.354ZM91.7959 109.406C95.6863 109.592 100.06 106.675 100.06 106.675C91.2432 109.876 88.6674 107.131 88.6674 107.131C88.6674 107.131 89.1434 109.279 91.7959 109.406ZM140.886 107.008C142.947 106.759 143.551 105.749 143.551 105.749C142.517 106.41 140.103 106.858 137.497 107.04C137.497 107.04 138.746 107.267 140.886 107.008Z" fill="black"/>
</g>
<defs>
<linearGradient id="paint0_linear_173_258" x1="0" y1="0" x2="0" y2="179" gradientUnits="userSpaceOnUse">
<stop stop-color="#17EAD9"/>
<stop offset="1" stop-color="#6078EA"/>
</linearGradient>
<clipPath id="clip0_173_258">
<rect width="223" height="179" fill="white"/>
</clipPath>
</defs>
</svg>
