<svg width="182" height="135" viewBox="0 0 182 135" fill="none" xmlns="http://www.w3.org/2000/svg">
<g clip-path="url(#clip0_329_3)">
<path d="M181.406 0H0V135H181.406V0Z" fill="#085AE1" fill-opacity="0.91"/>
<path d="M14.9756 117.783H9.98267V116.459H10.3859V112.83H9.98267V111.507H13.3852V112.83H12.6442V116.459H13.3701V115.718H14.9756V117.783ZM18.9351 117.896C17.9505 117.896 17.191 117.638 16.6567 117.122C16.1224 116.605 15.8552 115.779 15.8552 114.645C15.8552 113.511 16.1224 112.686 16.6567 112.17C17.191 111.654 17.9505 111.396 18.9351 111.396C19.9198 111.396 20.6793 111.654 21.2136 112.17C21.7479 112.686 22.0151 113.511 22.0151 114.645C22.0151 115.779 21.7479 116.605 21.2136 117.122C20.6793 117.638 19.9198 117.896 18.9351 117.896ZM18.9351 116.459C19.1183 116.459 19.2552 116.412 19.346 116.316C19.4384 116.218 19.4846 116.067 19.4846 115.862V113.427C19.4846 113.222 19.4384 113.072 19.346 112.976C19.2552 112.879 19.1183 112.83 18.9351 112.83C18.752 112.83 18.6151 112.879 18.5243 112.976C18.4319 113.072 18.3857 113.222 18.3857 113.427V115.862C18.3857 116.072 18.4319 116.224 18.5243 116.318C18.6151 116.412 18.752 116.459 18.9351 116.459ZM27.5902 112.83V111.507H30.2341V112.83H29.8308V117.783H27.565L25.2009 114.146V116.459H25.589V117.783H22.9426V116.459H23.3458V112.83H22.9426V111.507H25.8562L27.9758 114.743V112.83H27.5902ZM37.2761 114.564V115.766H36.8729V117.379C36.6359 117.514 36.2906 117.633 35.837 117.737C35.3816 117.843 34.891 117.896 34.3651 117.896C33.3586 117.896 32.5705 117.631 32.0009 117.102C31.4313 116.571 31.1465 115.752 31.1465 114.645C31.1465 113.511 31.4296 112.686 31.9959 112.17C32.5638 111.654 33.3745 111.396 34.4281 111.396C34.9389 111.396 35.4177 111.45 35.8647 111.557C36.31 111.665 36.646 111.786 36.8729 111.92V113.846H34.8565V113.468C34.8565 113.243 34.8095 113.08 34.7154 112.979C34.6213 112.88 34.4718 112.83 34.2668 112.83C34.0634 112.83 33.9147 112.88 33.8206 112.979C33.7266 113.08 33.6795 113.243 33.6795 113.468V115.822C33.6795 116.049 33.7266 116.212 33.8206 116.311C33.9147 116.41 34.0634 116.459 34.2668 116.459C34.4718 116.459 34.6213 116.41 34.7154 116.311C34.8095 116.212 34.8565 116.049 34.8565 115.822V115.766H34.4205V114.564H37.2761ZM44.3559 117.896C43.3411 117.896 42.558 117.638 42.0069 117.122C41.4558 116.605 41.1802 115.779 41.1802 114.645C41.1802 112.479 42.2338 111.396 44.3408 111.396C44.8516 111.396 45.3263 111.457 45.7648 111.58C46.2034 111.704 46.5302 111.841 46.7453 111.991V114.007H44.8096V113.427C44.8096 113.222 44.7634 113.072 44.671 112.976C44.5803 112.879 44.4433 112.83 44.2602 112.83C44.077 112.83 43.9401 112.879 43.8493 112.976C43.7569 113.072 43.7107 113.222 43.7107 113.427V115.862C43.7107 116.067 43.7569 116.218 43.8493 116.316C43.9401 116.412 44.077 116.459 44.2602 116.459C44.4433 116.459 44.5803 116.412 44.671 116.316C44.7634 116.218 44.8096 116.067 44.8096 115.862V115.209H46.7453V117.299C46.5235 117.45 46.1967 117.587 45.7648 117.71C45.3313 117.834 44.8617 117.896 44.3559 117.896ZM50.7376 117.896C49.753 117.896 48.9935 117.638 48.4592 117.122C47.9231 116.605 47.6551 115.779 47.6551 114.645C47.6551 113.511 47.9231 112.686 48.4592 112.17C48.9935 111.654 49.753 111.396 50.7376 111.396C51.7206 111.396 52.48 111.654 53.016 112.17C53.5504 112.686 53.8175 113.511 53.8175 114.645C53.8175 115.779 53.5504 116.605 53.016 117.122C52.48 117.638 51.7206 117.896 50.7376 117.896ZM50.7376 116.459C50.9191 116.459 51.056 116.412 51.1484 116.316C51.2392 116.218 51.2845 116.067 51.2845 115.862V113.427C51.2845 113.222 51.2392 113.072 51.1484 112.976C51.056 112.879 50.9191 112.83 50.7376 112.83C50.5545 112.83 50.4167 112.879 50.3243 112.976C50.2335 113.072 50.1882 113.222 50.1882 113.427V115.862C50.1882 116.072 50.2335 116.224 50.3243 116.318C50.4167 116.412 50.5545 116.459 50.7376 116.459ZM57.9712 112.83V111.507H60.6655V112.83H60.3429L58.8987 117.783H56.285L54.8408 112.83H54.5182V111.507H57.6158V112.83H57.1974L57.7544 115.532H57.8351L58.3895 112.83H57.9712ZM64.6402 117.783H61.5753V116.459H61.9786V112.83H61.5753V111.507H64.6402V112.83H64.2369V116.459H64.6402V117.783ZM65.6181 117.783V116.459H66.0213V112.838H65.6181V111.507H68.8921C69.7893 111.507 70.5026 111.753 71.0319 112.245C71.5629 112.738 71.8283 113.537 71.8283 114.645C71.8283 115.752 71.5629 116.552 71.0319 117.044C70.5026 117.536 69.7893 117.783 68.8921 117.783H65.6181ZM68.2796 116.459H68.7459C68.929 116.459 69.066 116.412 69.1567 116.316C69.2491 116.218 69.2953 116.067 69.2953 115.862V113.427C69.2953 113.029 69.1122 112.83 68.7459 112.83H68.2796V116.459ZM84.7227 111.507V112.83H84.3195V116.459H84.7227V117.783H81.6756V116.459H82.0612V113.637L80.6901 117.783H79.4979L78.0865 113.677V116.459H78.4721V117.783H75.8282V116.459H76.2315V112.83H75.8282V111.507H79.5206L80.3599 114.025L81.1664 111.507H84.7227ZM91.1447 117.783H85.7006V116.459H86.1039V112.83H85.7006V111.507H91.1447V113.944H89.3376V112.83H88.3622V114.105H89.0704V115.025H88.3622V116.459H89.3376V115.187H91.1447V117.783ZM92.9342 119H91.7799V118.743L94.3708 110.993H95.5151V111.25L92.9342 119ZM99.2982 117.896C98.2817 117.896 97.4978 117.638 96.9467 117.122C96.3956 116.605 96.12 115.779 96.12 114.645C96.12 112.479 97.1735 111.396 99.2806 111.396C99.7914 111.396 100.266 111.457 100.705 111.58C101.143 111.704 101.47 111.841 101.685 111.991V114.007H99.7494V113.427C99.7494 113.222 99.704 113.072 99.6133 112.976C99.5209 112.879 99.3831 112.83 99.1999 112.83C99.0185 112.83 98.8815 112.879 98.7891 112.976C98.6984 113.072 98.653 113.222 98.653 113.427V115.862C98.653 116.067 98.6984 116.218 98.7891 116.316C98.8815 116.412 99.0185 116.459 99.1999 116.459C99.3831 116.459 99.5209 116.412 99.6133 116.316C99.704 116.218 99.7494 116.067 99.7494 115.862V115.209H101.685V117.299C101.465 117.45 101.138 117.587 100.705 117.71C100.273 117.834 99.804 117.896 99.2982 117.896ZM106.363 117.783H102.645V116.459H103.049V112.83H102.645V111.507H107.467V113.596H106.04V112.83H105.307V114.168H106.524V115.088H105.307V116.459H106.363V117.783ZM110.895 117.896C110.379 117.896 109.891 117.852 109.433 117.762C108.972 117.673 108.619 117.573 108.372 117.46V115.862H110.146C110.146 116.03 110.184 116.151 110.259 116.225C110.333 116.301 110.47 116.338 110.67 116.338C110.837 116.338 110.956 116.313 111.028 116.263C111.1 116.211 111.137 116.134 111.137 116.033C111.137 115.946 111.102 115.872 111.033 115.812C110.963 115.75 110.842 115.686 110.67 115.62L109.977 115.378C109.379 115.153 108.95 114.888 108.689 114.582C108.429 114.274 108.299 113.86 108.299 113.339C108.299 112.704 108.507 112.221 108.924 111.89C109.34 111.561 110.035 111.396 111.008 111.396C111.477 111.396 111.916 111.443 112.326 111.537C112.738 111.631 113.071 111.756 113.324 111.91V113.354H111.711C111.711 113.085 111.544 112.951 111.21 112.951C111.048 112.951 110.934 112.971 110.867 113.012C110.8 113.052 110.766 113.123 110.766 113.226C110.766 113.316 110.806 113.389 110.885 113.443C110.962 113.496 111.09 113.553 111.268 113.614L111.968 113.856C112.538 114.049 112.953 114.3 113.213 114.609C113.476 114.919 113.607 115.323 113.607 115.822C113.607 116.506 113.376 117.022 112.916 117.372C112.456 117.721 111.782 117.896 110.895 117.896ZM117.559 117.783V116.459H117.962V112.83H117.559V111.507H121.259C121.952 111.507 122.483 111.65 122.849 111.935C123.214 112.221 123.396 112.683 123.396 113.322C123.396 113.683 123.324 113.995 123.179 114.259C123.035 114.521 122.828 114.704 122.559 114.806L122.567 114.887C123.082 114.967 123.34 115.285 123.34 115.839V116.459H123.718V117.783H121.163V115.887C121.163 115.677 121.132 115.518 121.069 115.411C121.007 115.303 120.911 115.231 120.78 115.194C120.649 115.156 120.462 115.136 120.22 115.136V116.459H120.752V117.783H117.559ZM120.22 114.153H120.654C120.81 114.153 120.927 114.111 121.006 114.027C121.084 113.945 121.122 113.815 121.122 113.637V113.347C121.122 113.169 121.084 113.038 121.006 112.956C120.927 112.872 120.81 112.83 120.654 112.83H120.22V114.153ZM130.108 117.783H124.664V116.459H125.067V112.83H124.664V111.507H130.108V113.944H128.301V112.83H127.325V114.105H128.033V115.025H127.325V116.459H128.301V115.187H130.108V117.783ZM134.196 117.896C133.179 117.896 132.395 117.638 131.844 117.122C131.293 116.605 131.018 115.779 131.018 114.645C131.018 112.479 132.072 111.396 134.181 111.396C134.691 111.396 135.166 111.457 135.605 111.58C136.042 111.704 136.367 111.841 136.583 111.991V114.007H134.647V113.427C134.647 113.222 134.602 113.072 134.511 112.976C134.42 112.879 134.283 112.83 134.1 112.83C133.917 112.83 133.78 112.879 133.689 112.976C133.597 113.072 133.551 113.222 133.551 113.427V115.862C133.551 116.067 133.597 116.218 133.689 116.316C133.78 116.412 133.917 116.459 134.1 116.459C134.283 116.459 134.42 116.412 134.511 116.316C134.602 116.218 134.647 116.067 134.647 115.862V115.209H136.583V117.299C136.362 117.45 136.036 117.587 135.605 117.71C135.171 117.834 134.701 117.896 134.196 117.896ZM140.575 117.896C139.592 117.896 138.832 117.638 138.296 117.122C137.762 116.605 137.495 115.779 137.495 114.645C137.495 113.511 137.762 112.686 138.296 112.17C138.832 111.654 139.592 111.396 140.575 111.396C141.56 111.396 142.319 111.654 142.853 112.17C143.389 112.686 143.657 113.511 143.657 114.645C143.657 115.779 143.389 116.605 142.853 117.122C142.319 117.638 141.56 117.896 140.575 117.896ZM140.575 116.459C140.758 116.459 140.896 116.412 140.988 116.316C141.079 116.218 141.124 116.067 141.124 115.862V113.427C141.124 113.222 141.079 113.072 140.988 112.976C140.896 112.879 140.758 112.83 140.575 112.83C140.393 112.83 140.256 112.879 140.164 112.976C140.073 113.072 140.028 113.222 140.028 113.427V115.862C140.028 116.072 140.073 116.224 140.164 116.318C140.256 116.412 140.393 116.459 140.575 116.459ZM147.811 112.83V111.507H150.505V112.83H150.183L148.738 117.783H146.125L144.681 112.83H144.358V111.507H147.456V112.83H147.037L147.592 115.532H147.672L148.229 112.83H147.811ZM156.859 117.783H151.415V116.459H151.818V112.83H151.415V111.507H156.859V113.944H155.052V112.83H154.077V114.105H154.787V115.025H154.077V116.459H155.052V115.187H156.859V117.783ZM157.819 117.783V116.459H158.223V112.83H157.819V111.507H161.522C162.216 111.507 162.745 111.65 163.11 111.935C163.476 112.221 163.659 112.683 163.659 113.322C163.659 113.683 163.586 113.995 163.44 114.259C163.295 114.521 163.089 114.704 162.82 114.806L162.828 114.887C163.343 114.967 163.601 115.285 163.601 115.839V116.459H163.982V117.783H161.424V115.887C161.424 115.677 161.393 115.518 161.333 115.411C161.271 115.303 161.173 115.231 161.041 115.194C160.91 115.156 160.723 115.136 160.481 115.136V116.459H161.013V117.783H157.819ZM160.481 114.153H160.917C161.073 114.153 161.19 114.111 161.267 114.027C161.345 113.945 161.383 113.815 161.383 113.637V113.347C161.383 113.169 161.345 113.038 161.267 112.956C161.19 112.872 161.073 112.83 160.917 112.83H160.481V114.153ZM168.128 112.83V111.507H170.603V112.83H170.28L168.723 115.62V116.459H169.126V117.783H166.061V116.459H166.464V115.62L164.861 112.83H164.539V111.507H167.659V112.83H167.377L167.853 114.08H167.934L168.41 112.83H168.128Z" fill="#1E3253" stroke="#FFDE59" stroke-width="0.381809" stroke-linecap="round"/>
<path d="M27.1465 95.3111V102.689L27 102.889H31.2378V100.133L29.874 100.844V101.556H28.5103V100.467L29.874 99.7556V98.4222L28.5103 99.1333V96.4444H29.874V97.1556L31.2378 96.4444V95.1111H27L27.1465 95.3111ZM33.1698 95.3111V102.689L33.0208 102.889H34.6801L34.5336 102.689V100.6L35.1018 102.889H36.4656L37.0338 100.6V102.689L36.8848 102.889H38.5441L38.3976 102.689V95.3111L38.5441 95.1111H37.0338L35.7837 100.143L34.5336 95.1111H33.0208L33.1698 95.3111ZM40.3296 95.3111V102.689L40.1831 102.889H41.8424L41.6934 102.689V100.546L43.09 99.8222C43.9891 99.3556 44.4209 98.6123 44.4209 97.6444V97.1111C44.4209 95.879 43.638 95.1111 42.3753 95.1111H40.1831L40.3296 95.3111ZM41.6934 99.0444V96.4444H42.3753C42.9763 96.4444 43.0571 96.521 43.0571 97.1111V97.6444C43.0571 98.2 42.9435 98.3901 42.4561 98.6444L41.6934 99.0444ZM46.3529 97V101C46.3529 102.101 47.2747 103 48.3986 103C49.5224 103 50.4442 102.101 50.4442 101V97C50.4442 95.9012 49.5224 95 48.3986 95C47.2747 95 46.3529 95.9012 46.3529 97ZM47.7167 101V97C47.7167 96.5432 47.9339 96.3333 48.3986 96.3333C48.8633 96.3333 49.0805 96.5432 49.0805 97V101C49.0805 101.457 48.8633 101.667 48.3986 101.667C47.9339 101.667 47.7167 101.457 47.7167 101ZM52 95.3111L53.5001 102.689L53.3991 102.889H55.0583L54.9548 102.689L55.5912 99.5654L56.2277 102.689L56.1266 102.889H57.7859L57.6823 102.689L59.1825 95.3111L59.377 95.1111H57.7177L57.8187 95.3111L56.955 99.5457L56.0913 95.3111L56.1948 95.1111H54.5356L54.7275 95.3111L54.9093 96.2222L54.2275 99.5556L53.3637 95.3111L53.4673 95.1111H51.808L52 95.3111ZM60.968 95.3111V102.689L60.819 102.889H65.0593V100.133L63.6956 100.844V101.556H62.3318V100.467L63.6956 99.7556V98.4222L62.3318 99.1333V96.4444H63.6956V97.1556L65.0593 96.4444V95.1111H60.819L60.968 95.3111ZM66.9913 95.3111V102.689L66.8423 102.889H68.5016L68.3551 102.689V100.546L68.8779 100.279L69.6507 102.689L69.5699 102.889H71.2291L71.0145 102.689L70.0472 99.6568C70.7417 99.1778 71.0827 98.5012 71.0827 97.6444V97.1111C71.0827 95.879 70.2972 95.1111 69.037 95.1111H66.8423L66.9913 95.3111ZM68.3551 99.0444V96.4444H69.037C69.6381 96.4444 69.7189 96.521 69.7189 97.1111V97.6444C69.7189 98.2 69.6052 98.3901 69.1153 98.6444L68.3551 99.0444ZM73.0147 95.3111V102.689L72.8657 102.889H77.106V100.133L75.7422 100.844V101.556H74.3784V100.467L75.7422 99.7556V98.4222L74.3784 99.1333V96.4444H75.7422V97.1556L77.106 96.4444V95.1111H72.8657L73.0147 95.3111ZM79.038 95.3111V102.689L78.889 102.889H81.0837C82.2075 102.889 83.1293 101.988 83.1293 100.889V97.1111C83.1293 96.0099 82.2075 95.1111 81.0837 95.1111H78.889L79.038 95.3111ZM80.4018 101.556V96.4444H81.0837C81.5483 96.4444 81.7655 96.6568 81.7655 97.1111V100.889C81.7655 101.346 81.5483 101.556 81.0837 101.556H80.4018ZM91.3119 97V98.1111L92.6757 97.4444V97C92.6757 95.9012 91.7539 95 90.6301 95C89.3673 95 88.5844 95.7679 88.5844 97V97.2C88.5844 98.1654 89.0163 98.8988 89.9027 99.3778L90.6982 99.8C91.2084 100.067 91.3119 100.244 91.3119 100.8V101C91.3119 101.59 91.2311 101.667 90.6301 101.667C90.1628 101.667 89.9482 101.457 89.9482 101V100L88.5844 100.667V101C88.5844 102.101 89.5037 103 90.6301 103C91.8903 103 92.6757 102.235 92.6757 101V100.8C92.6757 99.8321 92.2439 99.1012 91.3574 98.6222L90.5619 98.2C90.0492 97.9333 89.9482 97.7556 89.9482 97.2V97C89.9482 96.4123 90.0265 96.3333 90.6301 96.3333C91.0947 96.3333 91.3119 96.5432 91.3119 97ZM94.6077 95.3111V102.689L94.4587 102.889H98.699V100.133L97.3353 100.844V101.556H95.9715V100.467L97.3353 99.7556V98.4222L95.9715 99.1333V96.4444H97.3353V97.1556L98.699 96.4444V95.1111H94.4587L94.6077 95.3111ZM100.631 95.3111V102.689L100.482 102.889H104.381V101.412L104.177 101.556H101.995V95.3111L102.141 95.1111H100.482L100.631 95.3111ZM106.313 95.3111V102.689L106.164 102.889H107.824L107.677 102.689V100.467L109.041 99.7556V98.4222L107.677 99.1333V96.4444H109.041V97.1556L110.405 96.4444V95.1111H106.164L106.313 95.3111ZM112.337 98.4444V99.7778H114.837V98.4444H112.337ZM116.769 95.3111V102.689L116.62 102.889H118.279L118.133 102.689V100.467L119.497 99.7556V102.689L119.348 102.889H121.007L120.86 102.689V95.3111L121.007 95.1111H119.348L119.497 95.3111V98.4222L118.133 99.1333V95.3111L118.279 95.1111H116.62L116.769 95.3111ZM122.792 95.3111V102.689L122.643 102.889H126.884V100.133L125.52 100.844V101.556H124.156V100.467L125.52 99.7556V98.4222L124.156 99.1333V96.4444H125.52V97.1556L126.884 96.4444V95.1111H122.643L122.792 95.3111ZM133.122 102.689L131.622 95.3111L131.725 95.1111H130.066L130.167 95.3111L128.667 102.689L128.475 102.889H130.134L130.03 102.689L130.19 101.901L131.462 101.244L131.758 102.689L131.657 102.889H133.316L133.122 102.689ZM130.498 100.41L130.894 98.4568L131.212 100.035L130.498 100.41ZM134.907 95.3111V102.689L134.758 102.889H138.658V101.412L138.453 101.556H136.271V95.3111L136.417 95.1111H134.758L134.907 95.3111ZM140.441 102.889H142.1L141.953 102.689V95.3111L142.1 95.1111H140.441L140.59 95.3111V102.689L140.441 102.889ZM143.885 95.3111V102.689L143.736 102.889H145.396L145.249 102.689V99L146.613 102.889H148.123L147.977 102.689V95.3111L148.123 95.1111H146.464L146.613 95.3111V99L145.249 95.1111H143.736L143.885 95.3111ZM149.909 97V101C149.909 102.101 150.828 103 151.954 103C153.078 103 154 102.101 154 101V98.0889L151.954 99.1556V100.489L152.636 100.133V101C152.636 101.457 152.419 101.667 151.954 101.667C151.487 101.667 151.272 101.457 151.272 101V97C151.272 96.5432 151.487 96.3333 151.954 96.3333C152.419 96.3333 152.636 96.5432 152.636 97V97.6667L154 97C154 95.9012 153.078 95 151.954 95C150.828 95 149.909 95.9012 149.909 97Z" fill="#FFBE58"/>
<path d="M98.9937 51.9161C102.901 55.8231 102.901 62.1575 98.9937 66.0645H84.8453C80.9384 62.1575 80.9384 55.8231 84.8453 51.9161C88.7523 48.0091 95.0867 48.0091 98.9937 51.9161ZM92.1939 13.8635H91.6437V21.6943H92.1939V13.8635ZM91.9189 46.6379C91.9692 46.6379 92.0189 46.6397 92.0688 46.6414L92.1939 46.6452V26.0134H91.6437V46.6452L91.7688 46.6414C91.8187 46.6397 91.8687 46.6379 91.9189 46.6379ZM94.7261 46.9625L94.7556 46.9693L96.3696 39.3761L95.8311 39.2618L94.2171 46.8548L94.2472 46.8606C94.4079 46.891 94.5674 46.9254 94.7261 46.9625ZM86.6713 47.8075C86.8185 47.738 86.9669 47.6699 87.1174 47.6059L87.1455 47.5942L78.7567 28.7525L78.2536 28.9763L86.6435 47.8204L86.6713 47.8075ZM89.1115 46.9625C89.2701 46.9257 89.4294 46.891 89.5904 46.8606L89.6204 46.8548L88.0065 39.2618L87.468 39.3761L89.082 46.9693L89.1115 46.9625ZM84.437 49.1629L84.4613 49.1445C84.5913 49.0457 84.7242 48.9507 84.8584 48.8573L84.8832 48.8397L80.3198 42.5587L79.8742 42.8824L84.437 49.1629ZM99.8052 23.2132L99.2667 23.099L96.4993 36.1195L97.0375 36.2338L99.8052 23.2132ZM87.3383 36.1195L84.5709 23.099L84.0324 23.2132L86.8001 36.2338L87.3383 36.1195ZM98.9544 48.8397L98.9792 48.8573C99.1133 48.9507 99.2463 49.0454 99.3763 49.1445L99.4005 49.1629L103.963 42.8824L103.518 42.5587L98.9544 48.8397ZM96.7201 47.6059C96.8709 47.6699 97.019 47.738 97.1663 47.8075L97.194 47.8204L105.584 28.9763L105.081 28.7525L96.6921 47.5942L96.7201 47.6059ZM125.64 28.9997L125.272 28.5903L119.452 33.8304L119.821 34.2397L125.64 28.9997ZM134.924 45.3083L134.754 44.7844L127.306 47.2045L127.476 47.7283L134.924 45.3083ZM100.931 50.5475C101.043 50.6664 101.152 50.7879 101.259 50.9112L101.279 50.9343L116.611 37.1296L116.243 36.7202L100.911 50.5253L100.931 50.5475ZM112.257 47.5679L123.785 40.912L123.509 40.4352L111.981 47.0914L112.257 47.5679ZM110.526 17.8768L110.023 17.653L106.838 24.807L107.341 25.0308L110.526 17.8768ZM76.9999 24.807L73.8149 17.653L73.3121 17.8768L76.4971 25.0308L76.9999 24.807ZM105.852 40.2835L113.676 29.5142L113.23 29.1904L105.406 39.9601L105.852 40.2835ZM60.4692 49.063L80.0863 55.4369L80.0951 55.4077C80.1427 55.2511 80.1942 55.0963 80.2476 54.9426L80.2576 54.9136L60.6393 48.5391L60.4692 49.063ZM109.199 48.6972L102.478 52.5778L102.494 52.6037C102.579 52.7431 102.659 52.8851 102.738 53.028L102.753 53.0549L109.475 49.174L109.199 48.6972ZM123.198 48.5391L103.58 54.9136L103.59 54.9426C103.643 55.0963 103.695 55.2511 103.742 55.4077L103.751 55.4369L123.368 49.063L123.198 48.5391ZM104.174 57.4573C104.194 57.6189 104.211 57.7813 104.225 57.9449L104.228 57.9753L111.95 57.1634L111.892 56.6155L104.171 57.4272L104.174 57.4573ZM74.3631 49.174L81.0847 53.0549L81.0996 53.028C81.1785 52.8851 81.2588 52.7431 81.3436 52.6037L81.3593 52.5778L74.6386 48.6972L74.3631 49.174ZM115.087 56.2798L115.145 56.8277L128.384 55.4361L128.326 54.8882L115.087 56.2798ZM129.041 62.6164L128.983 63.1642L136.771 63.9832L136.829 63.4354L129.041 62.6164ZM104.225 60.0389C104.211 60.2025 104.194 60.365 104.174 60.5265L104.171 60.5566L124.688 62.7131L124.746 62.1653L104.228 60.0085L104.225 60.0389ZM71.8875 57.1634L79.6098 57.9753L79.6124 57.9449C79.6262 57.7813 79.6434 57.6189 79.6636 57.4576L79.6674 57.4272L71.9453 56.6155L71.8875 57.1634ZM64.3857 33.8304L58.566 28.5903L58.1976 28.9997L64.0173 34.2397L64.3857 33.8304ZM78.4315 39.9601L70.6072 29.1904L70.1616 29.5142L77.986 40.2835L78.4315 39.9601ZM79.6124 60.0392L79.6098 60.0088L59.0919 62.1653L59.1498 62.7131L79.6674 60.5566L79.6636 60.5262C79.6434 60.365 79.6262 60.2025 79.6124 60.0392ZM82.5786 50.9115C82.6858 50.7879 82.7945 50.6664 82.9061 50.5475L82.9268 50.5253L67.5949 36.7202L67.2265 37.1296L82.5587 50.9346L82.5786 50.9115ZM60.0529 40.912L71.5813 47.5679L71.8568 47.0914L60.3284 40.4352L60.0529 40.912ZM56.5319 47.2045L49.0842 44.7844L48.9139 45.3083L56.3619 47.7283L56.5319 47.2045ZM68.7507 56.2798L55.512 54.8882L55.4538 55.4361L68.6929 56.8277L68.7507 56.2798ZM47.0087 63.4354L47.0665 63.9832L54.8546 63.1642L54.7967 62.6164L47.0087 63.4354Z" fill="#F0B718"/>
<path d="M93.2253 65.8425C97.7309 65.8425 101.383 62.1901 101.383 57.6846C101.383 53.1791 97.7309 49.5266 93.2253 49.5266C88.7198 49.5266 85.0674 53.1791 85.0674 57.6846C85.0674 62.1901 88.7198 65.8425 93.2253 65.8425Z" fill="#F0BF32"/>
<path d="M94.693 62.3003C98.0525 62.3003 100.776 59.5769 100.776 56.2175C100.776 52.858 98.0525 50.1346 94.693 50.1346C91.3336 50.1346 88.6102 52.858 88.6102 56.2175C88.6102 59.5769 91.3336 62.3003 94.693 62.3003Z" fill="#F5C94B"/>
<path d="M100.911 60.5695C100.001 60.2945 99.2846 60.4677 98.0886 61.0294L96.9623 61.5847L92.3949 64.9158C92.3949 64.9158 89.6002 63.467 87.6473 62.2629C85.6944 61.0589 84.6519 61.0442 84.0352 61.1029C83.4185 61.1617 81.9653 61.3649 80.4181 62.1748C79.0905 62.8699 66.8555 66.7591 59.6312 68.7462C59.6153 68.7462 79.3774 68.8863 98.191 68.7462C98.4718 68.7441 98.7518 68.7483 99.0312 68.7462C113.31 68.6399 125.815 68.7462 125.815 68.7462C113.079 65.7478 101.381 60.7114 100.911 60.5695Z" fill="#326E42"/>
<path d="M96.9622 61.5846L98.0592 60.7846C99.2552 60.223 99.9718 60.0498 100.882 60.3247C101.352 60.4666 114.567 65.4345 125.814 68.7462C125.814 68.7462 120.313 68.8019 117.2 68.009C114.087 67.2161 111.062 65.601 109.624 65.0723C108.185 64.5437 105.072 64.0151 103.251 63.1048C101.43 62.1944 99.8639 61.5189 98.9633 61.6951C98.0627 61.8713 95.2435 63.5746 95.2435 63.5746C95.2435 63.5746 95.8855 62.5277 96.9622 61.5846ZM92.3949 64.9157C92.3949 64.9157 89.7813 63.0656 87.8284 61.8616C85.8755 60.6575 84.8329 60.6428 84.2162 60.7016C83.5995 60.7603 82.2438 61.1861 80.5992 61.7735C78.9547 62.3608 59.6312 68.7462 59.6312 68.7462C59.6312 68.7462 67.482 67.0008 69.1853 66.4134C70.8885 65.8261 75.3915 64.0053 76.9773 63.653C78.5631 63.3005 80.5013 62.7524 81.4117 62.4C82.3221 62.0476 83.9372 61.842 84.554 62.4C85.1707 62.9579 88.5381 64.9549 89.7127 65.601C90.8874 66.247 95.5294 68.2367 98.191 68.7524L94.7737 65.7674L92.3949 64.9157Z" fill="#3C7D4E"/>
<path d="M98.0594 60.7848C98.0594 60.7848 95.9003 63.3554 95.7359 63.9897C95.5714 64.624 99.0314 68.7463 99.0314 68.7463C99.0314 68.7463 95.4304 65.4463 94.8783 64.6592C94.3262 63.8722 98.0594 60.7848 98.0594 60.7848Z" fill="#438A56"/>
<path d="M95.1263 64.3579C95.1763 63.8574 96.2528 62.3331 98.0594 60.7848C97.8766 60.8707 97.6833 60.965 97.4756 61.0688C95.9094 61.8519 92.3951 64.9159 92.3951 64.9159C92.3951 64.9159 95.1981 67.0793 98.1912 68.7526C98.472 68.7505 98.752 68.7484 99.0314 68.7463C97.6658 67.3308 95.083 64.7904 95.1263 64.3579Z" fill="#2D543E"/>
<path d="M85.9608 82.7275C85.9655 82.7257 85.9701 82.724 85.9746 82.7224C85.9556 82.7062 85.9385 82.6875 85.9245 82.6666C85.8772 82.5989 85.8726 82.5029 85.9167 82.4326C85.8823 82.5056 85.8869 82.5947 85.9301 82.663C85.943 82.6841 85.9584 82.7038 85.9754 82.7221C85.9892 82.7174 86.0018 82.7137 86.0125 82.711C86.0231 82.6862 86.0322 82.6538 86.03 82.6185C86.029 82.6033 86.0236 82.6009 86.0154 82.5973C86.0014 82.5912 85.9901 82.5832 85.9935 82.5478C85.9965 82.516 85.9838 82.511 85.9702 82.5056C85.9605 82.5017 85.9485 82.497 85.9479 82.4812C85.9476 82.4728 85.9488 82.4654 85.9499 82.4589C85.9527 82.4422 85.9542 82.433 85.9288 82.4202C85.9146 82.4131 85.9063 82.4036 85.9041 82.3922C85.9039 82.3908 85.9037 82.3895 85.9036 82.3882C85.8661 82.4314 85.8485 82.4782 85.8513 82.5278C85.8561 82.6129 85.9199 82.6878 85.9608 82.7275ZM85.9904 82.713C85.9742 82.677 85.974 82.6323 85.9923 82.597C85.9855 82.6356 85.9859 82.6741 85.9904 82.713ZM85.9782 82.7111C85.9263 82.66 85.9189 82.5754 85.9458 82.51C85.9311 82.5782 85.9368 82.6529 85.9782 82.7111ZM86.3752 82.7566C86.3739 82.7569 86.3725 82.757 86.3712 82.7571C86.3595 82.7578 86.3484 82.752 86.338 82.74C86.3194 82.7184 86.3109 82.7221 86.2953 82.7288C86.2893 82.7314 86.2824 82.7344 86.2742 82.7361C86.2588 82.7394 86.2512 82.7288 86.2452 82.7204C86.2367 82.7086 86.2286 82.6974 86.1986 82.708C86.165 82.7199 86.1545 82.7109 86.1452 82.6988C86.1432 82.6961 86.1414 82.6939 86.1392 82.6921C86.1355 82.6892 86.1306 82.688 86.1211 82.6897C86.0583 82.7012 86.0135 82.7465 86.0001 82.7615C86.0259 82.7808 86.1429 82.862 86.2524 82.8412C86.3012 82.8319 86.3424 82.8035 86.3752 82.7566ZM86.2468 82.7451C86.1899 82.7871 86.106 82.8003 86.0438 82.7624C86.1103 82.7884 86.1842 82.776 86.2468 82.7451ZM86.1511 82.7211C86.1213 82.7474 86.0779 82.758 86.039 82.751C86.0778 82.7459 86.1153 82.737 86.1511 82.7211ZM86.1 82.8037C86.0742 82.7944 86.0501 82.7809 86.0283 82.7647C86.0578 82.7815 86.0887 82.7948 86.1214 82.8027C86.1933 82.8202 86.2717 82.8011 86.329 82.7547C86.2714 82.8145 86.1772 82.8332 86.1 82.8037ZM85.8721 83.0288C85.8752 82.9082 85.9232 82.8264 85.9629 82.779C85.9851 82.7525 86.007 82.7337 86.0232 82.7215C85.9608 82.736 85.816 82.7858 85.7266 82.9456C85.6342 83.1107 85.5435 83.1657 85.4371 83.193L85.7298 83.4217C85.7507 83.4091 85.8645 83.3267 85.8721 83.0288ZM85.7315 83.3486C85.7345 83.3404 85.7348 83.3327 85.733 83.3259C85.7273 83.3035 85.7003 83.2961 85.6817 83.3097C85.6847 83.3015 85.685 83.2938 85.6832 83.287C85.6775 83.2646 85.6505 83.2572 85.632 83.2708C85.6386 83.2524 85.6654 83.2478 85.6802 83.2604C85.6917 83.2686 85.6959 83.2852 85.691 83.2978C85.7021 83.2901 85.7192 83.2901 85.73 83.2992C85.7458 83.3105 85.7478 83.3377 85.7315 83.3486ZM85.8367 83.1789C85.8396 83.1708 85.8399 83.1631 85.8381 83.1562C85.8324 83.1338 85.8054 83.1264 85.7869 83.14C85.7899 83.1319 85.7902 83.1242 85.7884 83.1174C85.7827 83.0949 85.7557 83.0875 85.7372 83.1012C85.7438 83.0827 85.7706 83.0782 85.7854 83.0907C85.7969 83.0989 85.801 83.1155 85.7962 83.1282C85.8073 83.1204 85.8244 83.1204 85.8351 83.1296C85.8509 83.1409 85.853 83.168 85.8367 83.1789ZM85.6899 83.1172C85.7057 83.1285 85.7077 83.1556 85.6914 83.1665C85.6944 83.1584 85.6947 83.1507 85.6929 83.1438C85.6872 83.1214 85.6602 83.114 85.6417 83.1276C85.6483 83.1092 85.6751 83.1046 85.6899 83.1172ZM85.754 82.9722C85.7607 82.9537 85.7875 82.9491 85.8023 82.9617C85.818 82.973 85.8201 83.0001 85.8038 83.011C85.8067 83.0029 85.807 82.9952 85.8052 82.9884C85.7996 82.9659 85.7725 82.9585 85.754 82.9722ZM85.8359 83.0773C85.8517 83.0886 85.8537 83.1158 85.8374 83.1267C85.8404 83.1185 85.8407 83.1108 85.8389 83.104C85.8332 83.0816 85.8062 83.0742 85.7877 83.0878C85.7943 83.0694 85.8211 83.0648 85.8359 83.0773ZM85.891 82.8142C85.9068 82.8255 85.9088 82.8527 85.8925 82.8636C85.8955 82.8554 85.8958 82.8477 85.894 82.8409C85.8883 82.8185 85.8613 82.8111 85.8428 82.8247C85.8494 82.8063 85.8762 82.8017 85.891 82.8142ZM85.7556 82.9188C85.7623 82.9004 85.7891 82.8958 85.8039 82.9084C85.815 82.9164 85.8193 82.9323 85.8151 82.9447C85.8261 82.9377 85.8426 82.9379 85.853 82.9468C85.8688 82.9581 85.8709 82.9853 85.8545 82.9961C85.8575 82.988 85.8578 82.9803 85.856 82.9735C85.8507 82.9527 85.8272 82.9448 85.809 82.9546C85.8079 82.9557 85.8067 82.9568 85.8054 82.9577C85.8055 82.9574 85.8055 82.9571 85.8056 82.9567C85.8054 82.9569 85.8051 82.9571 85.8048 82.9573C85.8053 82.9559 85.8059 82.9547 85.8066 82.9535C85.8083 82.9469 85.8083 82.9407 85.8068 82.935C85.8011 82.9126 85.7741 82.9052 85.7556 82.9188ZM85.5913 83.1408C85.598 83.1224 85.6248 83.1178 85.6396 83.1304C85.651 83.1386 85.6552 83.1552 85.6504 83.1678C85.6614 83.1601 85.6785 83.1601 85.6893 83.1692C85.7051 83.1805 85.7071 83.2077 85.6908 83.2186C85.6938 83.2104 85.6941 83.2027 85.6923 83.1959C85.6866 83.1735 85.6596 83.1661 85.6411 83.1797C85.644 83.1715 85.6443 83.1638 85.6425 83.157C85.6369 83.1346 85.6098 83.1272 85.5913 83.1408ZM85.7289 83.4031C85.7319 83.3949 85.7322 83.3872 85.7304 83.3804C85.7247 83.358 85.6977 83.3506 85.6792 83.3642C85.6792 83.3642 85.6792 83.3642 85.6792 83.3642C85.6822 83.3561 85.6825 83.3484 85.6807 83.3416C85.675 83.3191 85.648 83.3117 85.6294 83.3254C85.6324 83.3172 85.6327 83.3095 85.6309 83.3027C85.6252 83.2803 85.5982 83.2729 85.5797 83.2865C85.5827 83.2783 85.583 83.2706 85.5812 83.2638C85.5755 83.2414 85.5485 83.234 85.5299 83.2476C85.5366 83.2292 85.5634 83.2246 85.5782 83.2372C85.5897 83.2454 85.5938 83.262 85.589 83.2746C85.6001 83.2669 85.6172 83.2669 85.6279 83.276C85.6394 83.2842 85.6436 83.3009 85.6387 83.3135C85.6498 83.3057 85.6669 83.3058 85.6777 83.3149C85.6892 83.3231 85.6933 83.3397 85.6885 83.3524C85.6996 83.3446 85.7167 83.3446 85.7274 83.3538C85.7432 83.365 85.7453 83.3922 85.7289 83.4031Z" fill="black"/>
<path d="M107.754 82.2817C105.205 82.905 102.5 83.4725 99.8873 82.7993C98.4632 82.4837 97.1938 81.3387 96.7613 79.9424C95.123 80.2631 93.6399 81.2399 92.1884 82.1193C91.2711 82.7409 90.0326 83.3221 88.8515 83.3839C90.7277 83.8079 92.7022 83.5752 94.5846 83.2612C91.9027 84.458 88.409 85.2703 85.856 83.4279C84.9727 82.7783 84.3613 81.8092 84.0851 80.7527C82.0296 81.3381 80.2889 82.6099 78.1971 83.458C76.0473 84.2698 73.3579 84.229 71.5166 82.7381C73.7799 83.7445 76.4561 83.2668 78.5223 82.01C80.6568 80.66 82.8463 79.2197 85.4317 78.9867C85.3606 79.4884 85.3852 79.9699 85.4919 80.4188C85.9093 82.1749 87.788 83.1365 89.49 82.5354C89.8706 82.401 90.2457 82.2178 90.6195 82.0028C88.9707 81.9335 87.3628 81.1895 87.1277 79.4042C88.0607 81.2082 89.883 81.4555 91.6296 81.0413C92.0756 80.9355 92.4956 80.7412 92.869 80.4753C94.4288 79.3645 96.1074 78.2828 98.1877 78.3464C97.0811 83.1752 104.77 82.7221 107.754 82.2817ZM83.6167 77.7668C85.4586 76.8191 87.072 76.1402 88.8862 75.5692C89.8044 78.1026 92.6658 79.0987 95.4619 78.5637C94.6373 78.5806 93.7884 78.4635 93.0112 78.2088C94.3183 78.3122 95.7408 77.7144 96.7861 76.9892C98.2083 76.1276 99.6964 75.1185 101.332 74.7809C101.767 76.1731 103.034 77.314 104.455 77.629C107.067 78.3021 109.773 77.7346 112.321 77.1114C109.338 77.5518 101.648 78.0048 102.755 73.1761C99.2347 73.0373 96.7511 76.3748 94.0981 77.3573C92.1182 78.0905 89.9945 76.6968 89.9512 74.5859C89.9462 74.3435 89.963 74.0897 90.0035 73.8243C84.651 74.1935 81.93 79.9648 76.0839 77.5677C78.2832 79.0731 81.2827 78.8725 83.6167 77.7668ZM88.1781 76.7315C86.564 77.2434 85.0702 78.0559 83.5674 78.8211C84.916 78.471 86.2731 78.1323 87.6446 77.9305C88.6099 79.1529 90.1515 79.9793 91.7073 79.7338C90.0292 79.626 88.6523 78.2959 88.1781 76.7315ZM100.68 75.7529C99.8509 76.3138 98.2 77.3403 97.3415 77.8883C98.1925 77.6356 99.4467 77.0245 100.367 76.7347C101.858 78.8192 104.684 79.5731 107.102 79.3275C104.64 79.2135 101.94 78.0758 100.68 75.7529ZM99.8022 78.8401C101.709 82.6571 108.307 81.1966 111.492 79.943C107.649 80.6535 103.075 81.5439 99.8022 78.8401ZM75.9602 80.9541C78.6646 81.0833 81.7046 79.0623 81.7046 79.0623C75.576 81.2797 73.7854 79.3783 73.7854 79.3783C73.7854 79.3783 74.1163 80.866 75.9602 80.9541ZM110.084 79.293C111.517 79.1201 111.938 78.4211 111.938 78.4211C111.219 78.8789 109.54 79.1888 107.729 79.315C107.729 79.315 108.597 79.4724 110.084 79.293Z" fill="black"/>
</g>
<defs>
<clipPath id="clip0_329_3">
<rect width="181.406" height="135" rx="7.94118" fill="white"/>
</clipPath>
</defs>
</svg>
