<svg width="228" height="169" viewBox="0 0 228 169" fill="none" xmlns="http://www.w3.org/2000/svg">
<g clip-path="url(#clip0_329_362)">
<path d="M227.094 0H0V169H227.094V0Z" fill="#085AE1" fill-opacity="0.91"/>
<path d="M14.6434 150.41H8.12097V148.681H8.64777V143.94H8.12097V142.211H12.5659V143.94H11.5979V148.681H12.5461V147.713H14.6434V150.41ZM19.8159 150.558C18.5297 150.558 17.5375 150.221 16.8395 149.547C16.1415 148.871 15.7925 147.792 15.7925 146.311C15.7925 144.829 16.1415 143.751 16.8395 143.077C17.5375 142.404 18.5297 142.067 19.8159 142.067C21.1022 142.067 22.0944 142.404 22.7924 143.077C23.4904 143.751 23.8394 144.829 23.8394 146.311C23.8394 147.792 23.4904 148.871 22.7924 149.547C22.0944 150.221 21.1022 150.558 19.8159 150.558ZM19.8159 148.681C20.0552 148.681 20.2341 148.619 20.3526 148.494C20.4734 148.366 20.5337 148.169 20.5337 147.901V144.72C20.5337 144.453 20.4734 144.256 20.3526 144.131C20.2341 144.004 20.0552 143.94 19.8159 143.94C19.5767 143.94 19.3978 144.004 19.2793 144.131C19.1585 144.256 19.0982 144.453 19.0982 144.72V147.901C19.0982 148.175 19.1585 148.374 19.2793 148.497C19.3978 148.62 19.5767 148.681 19.8159 148.681ZM31.1224 143.94V142.211H34.5762V143.94H34.0494V150.41H31.0895L28.0011 145.659V148.681H28.5082V150.41H25.051V148.681H25.5778V143.94H25.051V142.211H28.8572L31.6262 146.439V143.94H31.1224ZM43.7755 146.205V147.776H43.2487V149.883C42.9392 150.059 42.4881 150.214 41.8955 150.351C41.3006 150.489 40.6597 150.558 39.9727 150.558C38.6579 150.558 37.6284 150.212 36.8843 149.521C36.1402 148.827 35.7681 147.757 35.7681 146.311C35.7681 144.829 36.138 143.751 36.8777 143.077C37.6196 142.404 38.6787 142.067 40.055 142.067C40.7223 142.067 41.3478 142.137 41.9317 142.277C42.5134 142.418 42.9524 142.576 43.2487 142.751V145.267H40.6147V144.773C40.6147 144.479 40.5532 144.266 40.4303 144.134C40.3074 144.005 40.112 143.94 39.8443 143.94C39.5787 143.94 39.3844 144.005 39.2615 144.134C39.1386 144.266 39.0771 144.479 39.0771 144.773V147.848C39.0771 148.145 39.1386 148.357 39.2615 148.487C39.3844 148.616 39.5787 148.681 39.8443 148.681C40.112 148.681 40.3074 148.616 40.4303 148.487C40.5532 148.357 40.6147 148.145 40.6147 147.848V147.776H40.0451V146.205H43.7755ZM53.0242 150.558C51.6984 150.558 50.6755 150.221 49.9555 149.547C49.2356 148.871 48.8756 147.792 48.8756 146.311C48.8756 143.481 50.2519 142.067 53.0044 142.067C53.6717 142.067 54.2918 142.147 54.8647 142.307C55.4376 142.469 55.8645 142.648 56.1454 142.844V145.478H53.6168V144.72C53.6168 144.453 53.5564 144.256 53.4357 144.131C53.3172 144.004 53.1383 143.94 52.899 143.94C52.6598 143.94 52.4809 144.004 52.3624 144.131C52.2416 144.256 52.1813 144.453 52.1813 144.72V147.901C52.1813 148.169 52.2416 148.366 52.3624 148.494C52.4809 148.619 52.6598 148.681 52.899 148.681C53.1383 148.681 53.3172 148.619 53.4357 148.494C53.5564 148.366 53.6168 148.169 53.6168 147.901V147.048H56.1454V149.778C55.8557 149.975 55.4288 150.154 54.8647 150.314C54.2984 150.477 53.6848 150.558 53.0242 150.558ZM61.3608 150.558C60.0745 150.558 59.0824 150.221 58.3844 149.547C57.6841 148.871 57.334 147.792 57.334 146.311C57.334 144.829 57.6841 143.751 58.3844 143.077C59.0824 142.404 60.0745 142.067 61.3608 142.067C62.6449 142.067 63.637 142.404 64.3372 143.077C65.0352 143.751 65.3842 144.829 65.3842 146.311C65.3842 147.792 65.0352 148.871 64.3372 149.547C63.637 150.221 62.6449 150.558 61.3608 150.558ZM61.3608 148.681C61.5978 148.681 61.7767 148.619 61.8975 148.494C62.016 148.366 62.0752 148.169 62.0752 147.901V144.72C62.0752 144.453 62.016 144.256 61.8975 144.131C61.7767 144.004 61.5978 143.94 61.3608 143.94C61.1215 143.94 60.9415 144.004 60.8208 144.131C60.7023 144.256 60.643 144.453 60.643 144.72V147.901C60.643 148.175 60.7023 148.374 60.8208 148.497C60.9415 148.62 61.1215 148.681 61.3608 148.681ZM70.8103 143.94V142.211H74.3299V143.94H73.9085L72.0219 150.41H68.6076L66.721 143.94H66.2995V142.211H70.346V143.94H69.7995L70.5271 147.47H70.6325L71.3568 143.94H70.8103ZM79.5222 150.41H75.5185V148.681H76.0453V143.94H75.5185V142.211H79.5222V143.94H78.9954V148.681H79.5222V150.41ZM80.7997 150.41V148.681H81.3265V143.95H80.7997V142.211H85.0767C86.2488 142.211 87.1806 142.533 87.872 143.176C88.5656 143.819 88.9125 144.864 88.9125 146.311C88.9125 147.757 88.5656 148.802 87.872 149.445C87.1806 150.088 86.2488 150.41 85.0767 150.41H80.7997ZM84.2766 148.681H84.8857C85.125 148.681 85.3039 148.619 85.4224 148.494C85.5431 148.366 85.6035 148.169 85.6035 147.901V144.72C85.6035 144.2 85.3642 143.94 84.8857 143.94H84.2766V148.681ZM105.757 142.211V143.94H105.23V148.681H105.757V150.41H101.776V148.681H102.28V144.994L100.489 150.41H98.9315L97.0877 145.046V148.681H97.5915V150.41H94.1377V148.681H94.6645V143.94H94.1377V142.211H98.9612L100.058 145.501L101.111 142.211H105.757ZM114.146 150.41H107.034V148.681H107.561V143.94H107.034V142.211H114.146V145.395H111.785V143.94H110.511V145.606H111.436V146.808H110.511V148.681H111.785V147.019H114.146V150.41ZM116.484 152H114.976V151.664L118.361 141.54H119.855V141.876L116.484 152ZM124.797 150.558C123.469 150.558 122.446 150.221 121.726 149.547C121.006 148.871 120.646 147.792 120.646 146.311C120.646 143.481 122.022 142.067 124.774 142.067C125.442 142.067 126.062 142.147 126.635 142.307C127.208 142.469 127.635 142.648 127.915 142.844V145.478H125.387V144.72C125.387 144.453 125.328 144.256 125.209 144.131C125.088 144.004 124.908 143.94 124.669 143.94C124.432 143.94 124.253 144.004 124.132 144.131C124.014 144.256 123.955 144.453 123.955 144.72V147.901C123.955 148.169 124.014 148.366 124.132 148.494C124.253 148.619 124.432 148.681 124.669 148.681C124.908 148.681 125.088 148.619 125.209 148.494C125.328 148.366 125.387 148.169 125.387 147.901V147.048H127.915V149.778C127.628 149.975 127.201 150.154 126.635 150.314C126.071 150.477 125.458 150.558 124.797 150.558ZM134.026 150.41H129.17V148.681H129.697V143.94H129.17V142.211H135.468V144.941H133.605V143.94H132.647V145.688H134.237V146.89H132.647V148.681H134.026V150.41ZM139.946 150.558C139.272 150.558 138.636 150.5 138.037 150.383C137.435 150.267 136.973 150.135 136.65 149.988V147.901H138.968C138.968 148.12 139.018 148.278 139.117 148.375C139.213 148.474 139.392 148.523 139.653 148.523C139.871 148.523 140.026 148.49 140.121 148.424C140.215 148.356 140.262 148.257 140.262 148.125C140.262 148.011 140.217 147.914 140.127 147.835C140.035 147.754 139.877 147.67 139.653 147.585L138.748 147.269C137.966 146.975 137.406 146.628 137.065 146.228C136.725 145.827 136.555 145.286 136.555 144.605C136.555 143.775 136.827 143.144 137.372 142.712C137.916 142.282 138.824 142.067 140.094 142.067C140.707 142.067 141.281 142.128 141.816 142.251C142.354 142.374 142.789 142.536 143.12 142.738V144.625H141.013C141.013 144.274 140.795 144.098 140.358 144.098C140.147 144.098 139.998 144.124 139.91 144.177C139.822 144.23 139.778 144.323 139.778 144.457C139.778 144.575 139.83 144.67 139.933 144.74C140.034 144.81 140.201 144.885 140.434 144.964L141.349 145.28C142.093 145.533 142.635 145.861 142.975 146.265C143.318 146.668 143.489 147.196 143.489 147.848C143.489 148.742 143.188 149.417 142.587 149.873C141.985 150.33 141.105 150.558 139.946 150.558ZM148.652 150.41V148.681H149.178V143.94H148.652V142.211H153.485C154.392 142.211 155.084 142.398 155.563 142.771C156.039 143.144 156.277 143.748 156.277 144.582C156.277 145.054 156.183 145.462 155.994 145.807C155.805 146.149 155.535 146.387 155.184 146.521L155.194 146.627C155.868 146.732 156.205 147.147 156.205 147.871V148.681H156.699V150.41H153.36V147.934C153.36 147.659 153.319 147.452 153.238 147.312C153.157 147.171 153.031 147.077 152.859 147.028C152.688 146.978 152.445 146.953 152.129 146.953V148.681H152.823V150.41H148.652ZM152.129 145.669H152.695C152.899 145.669 153.053 145.614 153.156 145.504C153.257 145.396 153.307 145.226 153.307 144.994V144.615C153.307 144.382 153.257 144.212 153.156 144.105C153.053 143.995 152.899 143.94 152.695 143.94H152.129V145.669ZM165.045 150.41H157.933V148.681H158.46V143.94H157.933V142.211H165.045V145.395H162.684V143.94H161.41V145.606H162.335V146.808H161.41V148.681H162.684V147.019H165.045V150.41ZM170.385 150.558C169.058 150.558 168.034 150.221 167.314 149.547C166.594 148.871 166.234 147.792 166.234 146.311C166.234 143.481 167.611 142.067 170.366 142.067C171.033 142.067 171.653 142.147 172.226 142.307C172.797 142.469 173.223 142.648 173.503 142.844V145.478H170.975V144.72C170.975 144.453 170.916 144.256 170.797 144.131C170.679 144.004 170.5 143.94 170.26 143.94C170.021 143.94 169.842 144.004 169.724 144.131C169.603 144.256 169.543 144.453 169.543 144.72V147.901C169.543 148.169 169.603 148.366 169.724 148.494C169.842 148.619 170.021 148.681 170.26 148.681C170.5 148.681 170.679 148.619 170.797 148.494C170.916 148.366 170.975 148.169 170.975 147.901V147.048H173.503V149.778C173.216 149.975 172.79 150.154 172.226 150.314C171.66 150.477 171.046 150.558 170.385 150.558ZM178.719 150.558C177.435 150.558 176.443 150.221 175.742 149.547C175.044 148.871 174.695 147.792 174.695 146.311C174.695 144.829 175.044 143.751 175.742 143.077C176.443 142.404 177.435 142.067 178.719 142.067C180.005 142.067 180.997 142.404 181.695 143.077C182.395 143.751 182.746 144.829 182.746 146.311C182.746 147.792 182.395 148.871 181.695 149.547C180.997 150.221 180.005 150.558 178.719 150.558ZM178.719 148.681C178.958 148.681 179.138 148.619 179.259 148.494C179.377 148.366 179.437 148.169 179.437 147.901V144.72C179.437 144.453 179.377 144.256 179.259 144.131C179.138 144.004 178.958 143.94 178.719 143.94C178.482 143.94 178.303 144.004 178.182 144.131C178.064 144.256 178.004 144.453 178.004 144.72V147.901C178.004 148.175 178.064 148.374 178.182 148.497C178.303 148.62 178.482 148.681 178.719 148.681ZM188.172 143.94V142.211H191.691V143.94H191.27L189.383 150.41H185.969L184.082 143.94H183.661V142.211H187.707V143.94H187.161L187.885 147.47H187.991L188.718 143.94H188.172ZM199.992 150.41H192.88V148.681H193.407V143.94H192.88V142.211H199.992V145.395H197.631V143.94H196.357V145.606H197.285V146.808H196.357V148.681H197.631V147.019H199.992V150.41ZM201.246 150.41V148.681H201.773V143.94H201.246V142.211H206.083C206.989 142.211 207.681 142.398 208.157 142.771C208.636 143.144 208.875 143.748 208.875 144.582C208.875 145.054 208.779 145.462 208.588 145.807C208.4 146.149 208.13 146.387 207.778 146.521L207.788 146.627C208.462 146.732 208.799 147.147 208.799 147.871V148.681H209.296V150.41H205.954V147.934C205.954 147.659 205.915 147.452 205.836 147.312C205.755 147.171 205.627 147.077 205.454 147.028C205.283 146.978 205.039 146.953 204.723 146.953V148.681H205.418V150.41H201.246ZM204.723 145.669H205.293C205.497 145.669 205.649 145.614 205.75 145.504C205.851 145.396 205.902 145.226 205.902 144.994V144.615C205.902 144.382 205.851 144.212 205.75 144.105C205.649 143.995 205.497 143.94 205.293 143.94H204.723V145.669ZM214.712 143.94V142.211H217.946V143.94H217.524L215.49 147.585V148.681H216.016V150.41H212.013V148.681H212.539V147.585L210.445 143.94H210.024V142.211H214.1V143.94H213.731L214.354 145.573H214.459L215.081 143.94H214.712Z" fill="#1E3253" stroke="#FFDE59" stroke-width="0.477968" stroke-linecap="round"/>
<path d="M30.3624 119.477V129.315L30.1714 129.582H35.6962V125.907L33.9183 126.856V127.804H32.1403V126.352L33.9183 125.404V123.626L32.1403 124.574V120.988H33.9183V121.937L35.6962 120.988V119.21H30.1714L30.3624 119.477ZM38.215 119.477V129.315L38.0207 129.582H40.1839L39.9929 129.315V126.53L40.7337 129.582H42.5117L43.2525 126.53V129.315L43.0583 129.582H45.2214L45.0305 129.315V119.477L45.2214 119.21H43.2525L41.6227 125.921L39.9929 119.21H38.0207L38.215 119.477ZM47.5492 119.477V129.315L47.3583 129.582H49.5214L49.3272 129.315V126.457L51.1479 125.493C52.3201 124.87 52.8831 123.879 52.8831 122.589V121.877C52.8831 120.234 51.8624 119.21 50.2162 119.21H47.3583L47.5492 119.477ZM49.3272 124.455V120.988H50.2162C50.9998 120.988 51.1051 121.09 51.1051 121.877V122.589C51.1051 123.329 50.957 123.583 50.3215 123.922L49.3272 124.455ZM55.4019 121.729V127.063C55.4019 128.532 56.6036 129.73 58.0688 129.73C59.5339 129.73 60.7357 128.532 60.7357 127.063V121.729C60.7357 120.264 59.5339 119.062 58.0688 119.062C56.6036 119.062 55.4019 120.264 55.4019 121.729ZM57.1798 127.063V121.729C57.1798 121.12 57.463 120.84 58.0688 120.84C58.6746 120.84 58.9578 121.12 58.9578 121.729V127.063C58.9578 127.672 58.6746 127.952 58.0688 127.952C57.463 127.952 57.1798 127.672 57.1798 127.063ZM62.7639 119.477L64.7196 129.315L64.5879 129.582H66.7511L66.6161 129.315L67.4458 125.15L68.2755 129.315L68.1438 129.582H70.307L70.172 129.315L72.1278 119.477L72.3813 119.21H70.2181L70.3498 119.477L69.2238 125.124L68.0978 119.477L68.2327 119.21H66.0696L66.3198 119.477L66.5569 120.692L65.6679 125.137L64.5418 119.477L64.6768 119.21H62.5137L62.7639 119.477ZM74.4556 119.477V129.315L74.2613 129.582H79.7894V125.907L78.0115 126.856V127.804H76.2335V126.352L78.0115 125.404V123.626L76.2335 124.574V120.988H78.0115V121.937L79.7894 120.988V119.21H74.2613L74.4556 119.477ZM82.3082 119.477V129.315L82.1139 129.582H84.2771L84.0862 129.315V126.457L84.7677 126.102L85.7752 129.315L85.6698 129.582H87.833L87.5532 129.315L86.2921 125.272C87.1976 124.633 87.6421 123.731 87.6421 122.589V121.877C87.6421 120.234 86.6181 119.21 84.9751 119.21H82.1139L82.3082 119.477ZM84.0862 124.455V120.988H84.9751C85.7587 120.988 85.8641 121.09 85.8641 121.877V122.589C85.8641 123.329 85.7159 123.583 85.0772 123.922L84.0862 124.455ZM90.1608 119.477V129.315L89.9666 129.582H95.4947V125.907L93.7167 126.856V127.804H91.9388V126.352L93.7167 125.404V123.626L91.9388 124.574V120.988H93.7167V121.937L95.4947 120.988V119.21H89.9666L90.1608 119.477ZM98.0135 119.477V129.315L97.8192 129.582H100.68C102.146 129.582 103.347 128.38 103.347 126.915V121.877C103.347 120.409 102.146 119.21 100.68 119.21H97.8192L98.0135 119.477ZM99.7914 127.804V120.988H100.68C101.286 120.988 101.569 121.272 101.569 121.877V126.915C101.569 127.524 101.286 127.804 100.68 127.804H99.7914ZM114.015 121.729V123.211L115.793 122.322V121.729C115.793 120.264 114.591 119.062 113.126 119.062C111.48 119.062 110.459 120.086 110.459 121.729V121.996C110.459 123.283 111.022 124.261 112.178 124.9L113.215 125.463C113.88 125.818 114.015 126.056 114.015 126.796V127.063C114.015 127.85 113.91 127.952 113.126 127.952C112.517 127.952 112.237 127.672 112.237 127.063V125.73L110.459 126.619V127.063C110.459 128.532 111.658 129.73 113.126 129.73C114.769 129.73 115.793 128.709 115.793 127.063V126.796C115.793 125.506 115.23 124.531 114.074 123.892L113.037 123.329C112.369 122.974 112.237 122.737 112.237 121.996V121.729C112.237 120.946 112.339 120.84 113.126 120.84C113.732 120.84 114.015 121.12 114.015 121.729ZM118.312 119.477V129.315L118.117 129.582H123.646V125.907L121.868 126.856V127.804H120.09V126.352L121.868 125.404V123.626L120.09 124.574V120.988H121.868V121.937L123.646 120.988V119.21H118.117L118.312 119.477ZM126.164 119.477V129.315L125.97 129.582H131.054V127.613L130.787 127.804H127.942V119.477L128.133 119.21H125.97L126.164 119.477ZM133.573 119.477V129.315L133.378 129.582H135.541L135.35 129.315V126.352L137.128 125.404V123.626L135.35 124.574V120.988H137.128V121.937L138.906 120.988V119.21H133.378L133.573 119.477ZM141.425 123.655V125.433H144.685V123.655H141.425ZM147.203 119.477V129.315L147.009 129.582H149.172L148.981 129.315V126.352L150.759 125.404V129.315L150.565 129.582H152.728L152.537 129.315V119.477L152.728 119.21H150.565L150.759 119.477V123.626L148.981 124.574V119.477L149.172 119.21H147.009L147.203 119.477ZM155.056 119.477V129.315L154.862 129.582H160.39V125.907L158.612 126.856V127.804H156.834V126.352L158.612 125.404V123.626L156.834 124.574V120.988H158.612V121.937L160.39 120.988V119.21H154.862L155.056 119.477ZM168.522 129.315L166.567 119.477L166.702 119.21H164.539L164.67 119.477L162.714 129.315L162.464 129.582H164.627L164.492 129.315L164.7 128.265L166.359 127.389L166.744 129.315L166.613 129.582H168.776L168.522 129.315ZM165.102 126.276L165.618 123.672L166.033 125.776L165.102 126.276ZM170.85 119.477V129.315L170.656 129.582H175.74V127.613L175.473 127.804H172.628V119.477L172.819 119.21H170.656L170.85 119.477ZM178.064 129.582H180.227L180.036 129.315V119.477L180.227 119.21H178.064L178.258 119.477V129.315L178.064 129.582ZM182.555 119.477V129.315L182.361 129.582H184.524L184.333 129.315V124.396L186.111 129.582H188.08L187.889 129.315V119.477L188.08 119.21H185.917L186.111 119.477V124.396L184.333 119.21H182.361L182.555 119.477ZM190.408 121.729V127.063C190.408 128.532 191.606 129.73 193.075 129.73C194.54 129.73 195.742 128.532 195.742 127.063V123.181L193.075 124.604V126.381L193.964 125.907V127.063C193.964 127.672 193.68 127.952 193.075 127.952C192.466 127.952 192.186 127.672 192.186 127.063V121.729C192.186 121.12 192.466 120.84 193.075 120.84C193.68 120.84 193.964 121.12 193.964 121.729V122.618L195.742 121.729C195.742 120.264 194.54 119.062 193.075 119.062C191.606 119.062 190.408 120.264 190.408 121.729Z" fill="#FFBE58"/>
<path d="M123.925 64.9912C128.816 69.8821 128.816 77.8119 123.925 82.7028H106.214C101.323 77.8119 101.323 69.8821 106.214 64.9912C111.105 60.1002 119.034 60.1002 123.925 64.9912ZM115.413 17.355H114.724V27.1579H115.413V17.355ZM115.069 58.3837C115.132 58.3837 115.194 58.3859 115.256 58.3881L115.413 58.3928V32.5648H114.724V58.3928L114.881 58.3881C114.943 58.3859 115.006 58.3837 115.069 58.3837ZM118.583 58.79L118.62 58.7985L120.64 49.2929L119.966 49.1499L117.946 58.6551L117.983 58.6624C118.185 58.7004 118.384 58.7436 118.583 58.79ZM108.499 59.8478C108.684 59.7607 108.87 59.6755 109.058 59.5954L109.093 59.5808L98.5916 35.9938L97.9618 36.2739L108.465 59.8639L108.499 59.8478ZM111.554 58.79C111.753 58.744 111.952 58.7004 112.154 58.6624L112.191 58.6551L110.171 49.1499L109.497 49.2929L111.517 58.7985L111.554 58.79ZM105.703 61.5445L105.733 61.5215C105.896 61.3979 106.062 61.279 106.23 61.162L106.261 61.14L100.548 53.2771L99.9906 53.6823L105.703 61.5445ZM124.941 29.0594L124.267 28.9164L120.803 45.2162L121.476 45.3592L124.941 29.0594ZM109.334 45.2162L105.87 28.9164L105.196 29.0594L108.661 45.3592L109.334 45.2162ZM123.876 61.14L123.907 61.162C124.075 61.279 124.242 61.3975 124.404 61.5215L124.435 61.5445L130.147 53.6823L129.589 53.2771L123.876 61.14ZM121.079 59.5954C121.268 59.6755 121.453 59.7607 121.638 59.8478L121.672 59.8639L132.175 36.2739L131.546 35.9938L121.044 59.5808L121.079 59.5954ZM157.283 36.3032L156.821 35.7908L149.536 42.3505L149.997 42.863L157.283 36.3032ZM168.904 56.7192L168.691 56.0634L159.368 59.0929L159.581 59.7487L168.904 56.7192ZM126.351 63.2778C126.491 63.4267 126.627 63.5789 126.761 63.7332L126.786 63.7621L145.98 46.4806L145.518 45.9682L126.325 63.25L126.351 63.2778ZM140.528 59.5479L154.96 51.2157L154.615 50.6188L140.184 58.9513L140.528 59.5479ZM138.362 22.379L137.732 22.0988L133.745 31.0546L134.374 31.3348L138.362 22.379ZM96.3923 31.0546L92.4053 22.0988L91.7758 22.379L95.7629 31.3348L96.3923 31.0546ZM132.51 50.4289L142.305 36.9473L141.748 36.542L131.953 50.024L132.51 50.4289ZM75.6984 61.4195L100.256 69.3987L100.267 69.3621C100.327 69.1661 100.391 68.9723 100.458 68.7799L100.47 68.7436L75.9113 60.7637L75.6984 61.4195ZM136.701 60.9615L128.287 65.8195L128.307 65.852C128.413 66.0265 128.514 66.2042 128.613 66.3831L128.631 66.4167L137.046 61.5584L136.701 60.9615ZM154.226 60.7637L129.667 68.7436L129.679 68.7799C129.746 68.9723 129.811 69.1661 129.87 69.3621L129.881 69.3987L154.439 61.4195L154.226 60.7637ZM130.411 71.9279C130.436 72.1302 130.457 72.3335 130.474 72.5383L130.478 72.5764L140.145 71.56L140.072 70.8742L130.406 71.8902L130.411 71.9279ZM93.0914 61.5584L101.506 66.4167L101.525 66.3831C101.623 66.2042 101.724 66.0265 101.83 65.852L101.85 65.8195L93.4363 60.9615L93.0914 61.5584ZM144.072 70.4539L144.144 71.1397L160.717 69.3976L160.645 68.7118L144.072 70.4539ZM161.54 78.3864L161.467 79.0721L171.217 80.0974L171.29 79.4116L161.54 78.3864ZM130.474 75.1597C130.457 75.3645 130.436 75.5679 130.411 75.7701L130.406 75.8078L156.091 78.5074L156.163 77.8216L130.478 75.1217L130.474 75.1597ZM89.9924 71.56L99.6596 72.5764L99.6629 72.5383C99.6801 72.3335 99.7017 72.1302 99.7269 71.9283L99.7317 71.8902L90.0648 70.8742L89.9924 71.56ZM80.6013 42.3505L73.3159 35.7907L72.8546 36.3032L80.1401 42.863L80.6013 42.3505ZM98.1845 50.0241L88.3897 36.542L87.8319 36.9473L97.6267 50.4289L98.1845 50.0241ZM99.6629 75.1601L99.6596 75.122L73.9742 77.8216L74.0466 78.5074L99.7317 75.8078L99.7269 75.7698C99.7017 75.5679 99.6801 75.3645 99.6629 75.1601ZM103.376 63.7336C103.51 63.5789 103.646 63.4267 103.786 63.2778L103.812 63.25L84.6187 45.9682L84.1575 46.4806L103.351 63.7625L103.376 63.7336ZM75.1772 51.2157L89.6091 59.5479L89.954 58.9513L75.5221 50.6188L75.1772 51.2157ZM70.7695 59.0929L61.4461 56.0634L61.2328 56.7192L70.5566 59.7487L70.7695 59.0929ZM86.0656 70.4539L69.4926 68.7118L69.4199 69.3976L85.9932 71.1397L86.0656 70.4539ZM58.8478 79.4116L58.9202 80.0974L68.6697 79.0721L68.5973 78.3864L58.8478 79.4116Z" fill="#F0B718"/>
<path d="M116.705 82.4254C122.345 82.4254 126.917 77.853 126.917 72.2128C126.917 66.5726 122.345 62.0002 116.705 62.0002C111.064 62.0002 106.492 66.5726 106.492 72.2128C106.492 77.853 111.064 82.4254 116.705 82.4254Z" fill="#F0BF32"/>
<path d="M118.542 77.9908C122.747 77.9908 126.156 74.5815 126.156 70.376C126.156 66.1705 122.747 62.7612 118.542 62.7612C114.336 62.7612 110.927 66.1705 110.927 70.376C110.927 74.5815 114.336 77.9908 118.542 77.9908Z" fill="#F5C94B"/>
<path d="M126.326 75.8237C125.187 75.4795 124.29 75.6963 122.792 76.3995L121.382 77.0946L115.665 81.2646C115.665 81.2646 112.166 79.451 109.721 77.9437C107.277 76.4364 105.972 76.418 105.2 76.4915C104.428 76.5651 102.608 76.8195 100.672 77.8334C99.0095 78.7035 83.6931 83.5722 74.6494 86.0598C74.6295 86.0598 99.3687 86.2352 122.921 86.0598C123.272 86.0572 123.623 86.0624 123.972 86.0598C141.847 85.9267 157.501 86.0598 157.501 86.0598C141.558 82.3062 126.914 76.0014 126.326 75.8237Z" fill="#326E42"/>
<path d="M121.382 77.0948L122.756 76.0933C124.253 75.3902 125.15 75.1733 126.289 75.5175C126.877 75.6952 143.421 81.9143 157.501 86.06C157.501 86.06 150.614 86.1298 146.717 85.1372C142.82 84.1446 139.034 82.1226 137.232 81.4609C135.431 80.7992 131.534 80.1374 129.255 78.9977C126.975 77.8581 125.015 77.0126 123.887 77.2331C122.76 77.4537 119.231 79.586 119.231 79.586C119.231 79.586 120.034 78.2754 121.382 77.0948ZM115.665 81.2648C115.665 81.2648 112.393 78.9487 109.948 77.4415C107.503 75.9341 106.198 75.9158 105.426 75.9893C104.654 76.0628 102.957 76.5959 100.898 77.3312C98.8395 78.0664 74.6494 86.06 74.6494 86.06C74.6494 86.06 84.4774 83.875 86.6097 83.1397C88.7419 82.4045 94.3789 80.1252 96.3641 79.684C98.3493 79.2428 100.776 78.5566 101.915 78.1154C103.055 77.6743 105.077 77.4169 105.849 78.1154C106.621 78.8139 110.836 81.3138 112.307 82.1226C113.778 82.9314 119.589 85.4222 122.921 86.0678L118.643 82.3309L115.665 81.2648Z" fill="#3C7D4E"/>
<path d="M122.756 76.0935C122.756 76.0935 120.053 79.3115 119.847 80.1056C119.641 80.8996 123.973 86.0602 123.973 86.0602C123.973 86.0602 119.465 81.929 118.774 80.9437C118.082 79.9585 122.756 76.0935 122.756 76.0935Z" fill="#438A56"/>
<path d="M119.084 80.5665C119.147 79.9399 120.494 78.0317 122.756 76.0935C122.527 76.201 122.285 76.3191 122.025 76.4491C120.064 77.4294 115.665 81.265 115.665 81.265C115.665 81.265 119.174 83.9733 122.921 86.068C123.272 86.0654 123.623 86.0628 123.973 86.0602C122.263 84.2882 119.03 81.1079 119.084 80.5665Z" fill="#2D543E"/>
<path d="M107.61 103.562C107.616 103.56 107.622 103.558 107.627 103.556C107.604 103.536 107.582 103.512 107.565 103.486C107.505 103.401 107.5 103.281 107.555 103.193C107.512 103.284 107.518 103.396 107.572 103.482C107.588 103.508 107.607 103.533 107.628 103.556C107.646 103.55 107.661 103.545 107.675 103.542C107.688 103.511 107.7 103.47 107.697 103.426C107.696 103.407 107.689 103.404 107.678 103.399C107.661 103.392 107.647 103.382 107.651 103.337C107.655 103.298 107.639 103.291 107.622 103.284C107.61 103.28 107.595 103.274 107.594 103.254C107.594 103.243 107.595 103.234 107.597 103.226C107.6 103.205 107.602 103.194 107.57 103.178C107.552 103.169 107.542 103.157 107.539 103.143C107.539 103.141 107.539 103.139 107.539 103.137C107.492 103.192 107.47 103.25 107.473 103.312C107.479 103.419 107.559 103.513 107.61 103.562ZM107.647 103.544C107.627 103.499 107.627 103.443 107.65 103.399C107.641 103.447 107.642 103.495 107.647 103.544ZM107.632 103.542C107.567 103.478 107.558 103.372 107.591 103.29C107.573 103.375 107.58 103.469 107.632 103.542ZM108.129 103.599C108.127 103.599 108.126 103.599 108.124 103.599C108.109 103.6 108.095 103.593 108.082 103.578C108.059 103.551 108.048 103.555 108.029 103.564C108.021 103.567 108.013 103.571 108.003 103.573C107.983 103.577 107.974 103.564 107.966 103.553C107.956 103.539 107.945 103.525 107.908 103.538C107.866 103.553 107.853 103.541 107.841 103.526C107.838 103.523 107.836 103.52 107.834 103.518C107.829 103.514 107.823 103.513 107.811 103.515C107.732 103.529 107.676 103.586 107.659 103.605C107.692 103.629 107.838 103.731 107.975 103.705C108.036 103.693 108.088 103.657 108.129 103.599ZM107.968 103.584C107.897 103.637 107.792 103.653 107.714 103.606C107.797 103.639 107.89 103.623 107.968 103.584ZM107.848 103.554C107.811 103.587 107.757 103.6 107.708 103.592C107.757 103.585 107.804 103.574 107.848 103.554ZM107.784 103.658C107.752 103.646 107.722 103.629 107.695 103.609C107.732 103.63 107.77 103.647 107.811 103.656C107.901 103.678 107.999 103.654 108.071 103.596C107.999 103.671 107.881 103.695 107.784 103.658ZM107.499 103.939C107.503 103.788 107.563 103.686 107.613 103.627C107.641 103.594 107.668 103.57 107.688 103.555C107.61 103.573 107.429 103.635 107.317 103.835C107.201 104.042 107.088 104.111 106.955 104.145L107.321 104.431C107.347 104.416 107.49 104.312 107.499 103.939ZM107.323 104.34C107.327 104.33 107.327 104.32 107.325 104.311C107.318 104.283 107.284 104.274 107.261 104.291C107.265 104.281 107.265 104.271 107.263 104.263C107.256 104.235 107.222 104.225 107.199 104.242C107.207 104.219 107.24 104.214 107.259 104.229C107.273 104.24 107.279 104.26 107.272 104.276C107.286 104.267 107.308 104.267 107.321 104.278C107.341 104.292 107.344 104.326 107.323 104.34ZM107.455 104.127C107.458 104.117 107.459 104.108 107.457 104.099C107.449 104.071 107.416 104.062 107.392 104.079C107.396 104.069 107.397 104.059 107.394 104.05C107.387 104.022 107.353 104.013 107.33 104.03C107.339 104.007 107.372 104.001 107.391 104.017C107.405 104.027 107.41 104.048 107.404 104.064C107.418 104.054 107.439 104.054 107.453 104.066C107.473 104.08 107.475 104.114 107.455 104.127ZM107.271 104.05C107.291 104.064 107.293 104.098 107.273 104.112C107.277 104.102 107.277 104.092 107.275 104.083C107.268 104.055 107.234 104.046 107.211 104.063C107.219 104.04 107.253 104.034 107.271 104.05ZM107.351 103.869C107.36 103.845 107.393 103.84 107.412 103.855C107.431 103.87 107.434 103.904 107.414 103.917C107.417 103.907 107.418 103.897 107.415 103.889C107.408 103.861 107.375 103.851 107.351 103.869ZM107.454 104C107.474 104.014 107.476 104.048 107.456 104.062C107.459 104.052 107.46 104.042 107.458 104.034C107.45 104.006 107.417 103.996 107.393 104.013C107.402 103.99 107.435 103.985 107.454 104ZM107.523 103.671C107.543 103.685 107.545 103.719 107.525 103.733C107.528 103.722 107.529 103.713 107.527 103.704C107.519 103.676 107.486 103.667 107.462 103.684C107.471 103.661 107.504 103.655 107.523 103.671ZM107.353 103.802C107.362 103.779 107.395 103.773 107.414 103.789C107.428 103.799 107.433 103.819 107.428 103.834C107.442 103.825 107.462 103.826 107.475 103.837C107.495 103.851 107.498 103.885 107.477 103.899C107.481 103.888 107.481 103.879 107.479 103.87C107.472 103.844 107.443 103.834 107.42 103.847C107.419 103.848 107.417 103.849 107.416 103.85C107.416 103.85 107.416 103.85 107.416 103.849C107.416 103.849 107.415 103.85 107.415 103.85C107.415 103.848 107.416 103.847 107.417 103.845C107.419 103.837 107.419 103.829 107.417 103.822C107.41 103.794 107.376 103.785 107.353 103.802ZM107.148 104.08C107.156 104.057 107.19 104.051 107.208 104.067C107.222 104.077 107.228 104.098 107.222 104.114C107.235 104.104 107.257 104.104 107.27 104.115C107.29 104.129 107.293 104.163 107.272 104.177C107.276 104.167 107.276 104.157 107.274 104.149C107.267 104.121 107.233 104.111 107.21 104.128C107.214 104.118 107.214 104.109 107.212 104.1C107.205 104.072 107.171 104.063 107.148 104.08ZM107.32 104.408C107.324 104.398 107.324 104.388 107.322 104.38C107.315 104.352 107.281 104.342 107.258 104.359C107.258 104.359 107.258 104.359 107.258 104.359C107.261 104.349 107.262 104.34 107.259 104.331C107.252 104.303 107.219 104.294 107.195 104.311C107.199 104.301 107.199 104.291 107.197 104.282C107.19 104.254 107.156 104.245 107.133 104.262C107.137 104.252 107.137 104.242 107.135 104.234C107.128 104.206 107.094 104.196 107.071 104.213C107.079 104.19 107.113 104.185 107.131 104.2C107.146 104.211 107.151 104.231 107.145 104.247C107.159 104.238 107.18 104.238 107.193 104.249C107.208 104.259 107.213 104.28 107.207 104.296C107.221 104.286 107.242 104.286 107.256 104.298C107.27 104.308 107.275 104.329 107.269 104.345C107.283 104.335 107.305 104.335 107.318 104.346C107.338 104.36 107.34 104.394 107.32 104.408Z" fill="black"/>
<path d="M134.892 103.005C131.701 103.785 128.315 104.495 125.044 103.652C123.261 103.257 121.672 101.824 121.131 100.076C119.08 100.477 117.223 101.7 115.406 102.801C114.258 103.579 112.707 104.307 111.229 104.384C113.578 104.915 116.049 104.624 118.406 104.231C115.049 105.729 110.675 106.746 107.479 104.439C106.373 103.626 105.608 102.413 105.262 101.09C102.689 101.823 100.51 103.415 97.8912 104.477C95.2 105.493 91.8333 105.442 89.5282 103.576C92.3615 104.836 95.7117 104.238 98.2983 102.664C100.97 100.974 103.711 99.1713 106.948 98.8796C106.859 99.5077 106.89 100.11 107.023 100.672C107.546 102.871 109.898 104.075 112.028 103.322C112.505 103.154 112.974 102.925 113.442 102.655C111.378 102.569 109.365 101.637 109.071 99.4023C110.239 101.661 112.52 101.97 114.707 101.452C115.265 101.319 115.791 101.076 116.258 100.743C118.211 99.3526 120.312 97.9985 122.916 98.0781C121.531 104.123 131.157 103.556 134.892 103.005ZM104.676 97.3526C106.982 96.1661 109.001 95.3162 111.272 94.6015C112.422 97.7728 116.004 99.0198 119.504 98.3502C118.472 98.3712 117.409 98.2247 116.436 97.9058C118.072 98.0353 119.853 97.2869 121.162 96.3791C122.942 95.3005 124.805 94.0372 126.853 93.6146C127.398 95.3574 128.983 96.7857 130.762 97.18C134.032 98.0226 137.419 97.3122 140.61 96.532C136.874 97.0834 127.249 97.6505 128.634 91.6056C124.227 91.4319 121.118 95.6099 117.797 96.8398C115.318 97.7577 112.66 96.013 112.606 93.3705C112.599 93.0671 112.62 92.7493 112.671 92.4171C105.97 92.8793 102.564 100.104 95.2458 97.1033C97.9989 98.9878 101.754 98.7366 104.676 97.3526ZM110.386 96.0565C108.365 96.6973 106.495 97.7145 104.614 98.6723C106.302 98.2341 108.001 97.81 109.718 97.5574C110.927 99.0877 112.856 100.122 114.804 99.8149C112.703 99.68 110.98 98.0148 110.386 96.0565ZM126.036 94.8314C124.999 95.5335 122.932 96.8185 121.857 97.5046C122.922 97.1883 124.493 96.4233 125.644 96.0605C127.511 98.6699 131.049 99.6137 134.076 99.3063C130.993 99.1636 127.613 97.7394 126.036 94.8314ZM124.938 98.6962C127.325 103.474 135.584 101.646 139.571 100.077C134.761 100.966 129.035 102.081 124.938 98.6962ZM95.0909 101.343C98.4764 101.504 102.282 98.9743 102.282 98.9743C94.61 101.75 92.3684 99.3698 92.3684 99.3698C92.3684 99.3698 92.7826 101.232 95.0909 101.343ZM137.809 99.2631C139.603 99.0467 140.129 98.1715 140.129 98.1715C139.23 98.7447 137.128 99.1326 134.86 99.2907C134.86 99.2907 135.947 99.4877 137.809 99.2631Z" fill="black"/>
</g>
<defs>
<clipPath id="clip0_329_362">
<rect width="227.094" height="169" rx="9.94118" fill="white"/>
</clipPath>
</defs>
</svg>
