<svg width="42" height="41" viewBox="0 0 42 41" fill="none" xmlns="http://www.w3.org/2000/svg">
<ellipse cx="21.1457" cy="20.4268" rx="20.4291" ry="20.4268" fill="#FFD364"/>
<rect width="27.2388" height="27.2358" transform="translate(7.52551 6.80884)" fill="#FFD364"/>
<g clip-path="url(#clip0_374_42)">
<path d="M30.6672 15.3647C30.4281 14.4758 29.7273 13.7752 28.8385 13.5358C27.2149 13.0916 20.7202 13.0916 20.7202 13.0916C20.7202 13.0916 14.2258 13.0916 12.6021 13.519C11.7305 13.7581 11.0126 14.476 10.7735 15.3647C10.3462 16.9882 10.3462 20.3552 10.3462 20.3552C10.3462 20.3552 10.3462 23.7391 10.7735 25.3457C11.0128 26.2344 11.7134 26.9351 12.6023 27.1744C14.2429 27.6188 20.7205 27.6188 20.7205 27.6188C20.7205 27.6188 27.2149 27.6188 28.8385 27.1914C29.7274 26.9522 30.4281 26.2515 30.6674 25.3628C31.0946 23.7391 31.0946 20.3723 31.0946 20.3723C31.0946 20.3723 31.1117 16.9882 30.6672 15.3647ZM18.6524 23.4657V17.2447L24.0531 20.3552L18.6524 23.4657Z" fill="url(#paint0_linear_374_42)"/>
</g>
<defs>
<linearGradient id="paint0_linear_374_42" x1="11.2021" y1="15.9809" x2="32.8261" y2="25.3636" gradientUnits="userSpaceOnUse">
<stop stop-color="#034078"/>
<stop offset="1" stop-color="#0676DE"/>
</linearGradient>
<clipPath id="clip0_374_42">
<rect width="22.1318" height="22.1318" fill="white" transform="translate(9.66211 9.48511)"/>
</clipPath>
</defs>
</svg>
